<svg width="14" height="14" viewBox="0 0 14 14" fill="none" xmlns="http://www.w3.org/2000/svg">
<g clip-path="url(#clip0_0_939)">
<path d="M0.513969 6.45011C0.3781 6.59597 0.301773 6.79376 0.301773 7C0.301773 7.20624 0.3781 7.40404 0.513969 7.54989L4.61387 11.9498C4.68073 12.0241 4.7607 12.0833 4.84912 12.1241C4.93754 12.1648 5.03264 12.1863 5.12887 12.1872C5.22511 12.1881 5.32054 12.1684 5.40961 12.1293C5.49868 12.0902 5.5796 12.0324 5.64765 11.9594C5.71569 11.8864 5.76951 11.7996 5.80595 11.704C5.84239 11.6084 5.86073 11.506 5.85989 11.4027C5.85906 11.2994 5.83906 11.1974 5.80108 11.1025C5.7631 11.0076 5.70788 10.9217 5.63866 10.85L2.77591 7.77778L12.3737 7.77778C12.566 7.77778 12.7503 7.69583 12.8862 7.54997C13.0221 7.40411 13.0985 7.20628 13.0985 7C13.0985 6.79372 13.0221 6.59589 12.8862 6.45003C12.7503 6.30417 12.566 6.22222 12.3737 6.22222L2.77591 6.22222L5.63866 3.15C5.77068 3.00331 5.84373 2.80684 5.84208 2.60291C5.84043 2.39898 5.76421 2.2039 5.62983 2.0597C5.49546 1.91549 5.31368 1.83369 5.12366 1.83192C4.93363 1.83015 4.75056 1.90855 4.61387 2.05022L0.513969 6.45011Z" fill="black"/>
</g>
<defs>
<clipPath id="clip0_0_939">
<rect width="14" height="14" fill="white" transform="translate(0 14) rotate(-90)"/>
</clipPath>
</defs>
</svg>
