<svg width="14" height="14" viewBox="0 0 14 14" fill="none" xmlns="http://www.w3.org/2000/svg">
<g clip-path="url(#clip0_0_709)">
<path d="M0.513954 7.54986C0.378085 7.404 0.301758 7.20621 0.301758 6.99997C0.301758 6.79373 0.378085 6.59593 0.513954 6.45008L4.61385 2.05019C4.68071 1.9759 4.76068 1.91665 4.8491 1.87589C4.93753 1.83513 5.03263 1.81367 5.12886 1.81277C5.22509 1.81188 5.32052 1.83156 5.40959 1.87066C5.49866 1.90977 5.57958 1.96752 5.64763 2.04055C5.71568 2.11358 5.76949 2.20042 5.80593 2.296C5.84238 2.39159 5.86071 2.49401 5.85988 2.59728C5.85904 2.70055 5.83905 2.80261 5.80107 2.8975C5.76308 2.9924 5.70787 3.07822 5.63865 3.14997L2.77589 6.22219L12.3737 6.22219C12.5659 6.22219 12.7503 6.30413 12.8862 6.45C13.0221 6.59586 13.0985 6.79369 13.0985 6.99997C13.0985 7.20625 13.0221 7.40408 12.8862 7.54994C12.7503 7.6958 12.5659 7.77774 12.3737 7.77774L2.77589 7.77775L5.63865 10.85C5.77067 10.9967 5.84372 11.1931 5.84207 11.3971C5.84041 11.601 5.76419 11.7961 5.62982 11.9403C5.49545 12.0845 5.31367 12.1663 5.12364 12.168C4.93362 12.1698 4.75054 12.0914 4.61385 11.9497L0.513954 7.54986Z" fill="#00A9DE"/>
</g>
<defs>
<clipPath id="clip0_0_709">
<rect width="14" height="14" fill="white" transform="matrix(4.37114e-08 1 1 -4.37114e-08 0 0)"/>
</clipPath>
</defs>
</svg>
