<svg width="14" height="14" viewBox="0 0 14 14" fill="none" xmlns="http://www.w3.org/2000/svg">
<g clip-path="url(#clip0_0_705)">
<path d="M13.486 7.54986C13.6219 7.404 13.6982 7.20621 13.6982 6.99997C13.6982 6.79373 13.6219 6.59593 13.486 6.45008L9.38615 2.05019C9.31929 1.9759 9.23932 1.91665 9.1509 1.87589C9.06247 1.83513 8.96737 1.81367 8.87114 1.81277C8.77491 1.81188 8.67948 1.83156 8.59041 1.87066C8.50134 1.90977 8.42042 1.96752 8.35237 2.04055C8.28432 2.11358 8.23051 2.20042 8.19407 2.296C8.15762 2.39159 8.13929 2.49401 8.14012 2.59728C8.14096 2.70055 8.16095 2.80261 8.19893 2.8975C8.23692 2.9924 8.29213 3.07822 8.36135 3.14997L11.2241 6.22219L1.62627 6.22219C1.43405 6.22219 1.24971 6.30413 1.1138 6.45C0.977878 6.59586 0.901521 6.79369 0.901521 6.99997C0.901521 7.20625 0.977878 7.40408 1.1138 7.54994C1.24971 7.6958 1.43405 7.77774 1.62627 7.77774L11.2241 7.77775L8.36135 10.85C8.22933 10.9967 8.15628 11.1931 8.15793 11.3971C8.15959 11.601 8.23581 11.7961 8.37018 11.9403C8.50455 12.0845 8.68633 12.1663 8.87636 12.168C9.06638 12.1698 9.24946 12.0914 9.38615 11.9497L13.486 7.54986Z" fill="#00A9DE"/>
</g>
<defs>
<clipPath id="clip0_0_705">
<rect width="14" height="14" fill="white" transform="translate(14) rotate(90)"/>
</clipPath>
</defs>
</svg>
