<?xml version="1.0" encoding="UTF-8"?>
<!DOCTYPE svg PUBLIC "-//W3C//DTD SVG 1.1//EN" "http://www.w3.org/Graphics/SVG/1.1/DTD/svg11.dtd">
<svg xmlns="http://www.w3.org/2000/svg" version="1.1" width="206px" height="198px" style="shape-rendering:geometricPrecision; text-rendering:geometricPrecision; image-rendering:optimizeQuality; fill-rule:evenodd; clip-rule:evenodd" xmlns:xlink="http://www.w3.org/1999/xlink">
<g><path style="opacity:1" fill="#4aa3d5" d="M -0.5,-0.5 C 68.1667,-0.5 136.833,-0.5 205.5,-0.5C 205.5,65.5 205.5,131.5 205.5,197.5C 136.833,197.5 68.1667,197.5 -0.5,197.5C -0.5,131.5 -0.5,65.5 -0.5,-0.5 Z"/></g>
<g><path style="opacity:1" fill="#aadbee" d="M 20.5,3.5 C 38.1667,2.16667 55.8333,2.16667 73.5,3.5C 72.5,3.5 71.5,3.5 70.5,3.5C 70.5,6.16667 70.5,8.83333 70.5,11.5C 72.8333,11.5 75.1667,11.5 77.5,11.5C 77.5,9.5 77.5,7.5 77.5,5.5C 80.8333,6.83333 83.1667,9.16667 84.5,12.5C 82.5,12.5 80.5,12.5 78.5,12.5C 78.5,15.1667 78.5,17.8333 78.5,20.5C 81.1667,20.5 83.8333,20.5 86.5,20.5C 86.5,20.8333 86.5,21.1667 86.5,21.5C 83.8333,21.5 81.1667,21.5 78.5,21.5C 78.5,24.1667 78.5,26.8333 78.5,29.5C 81.1667,29.5 83.8333,29.5 86.5,29.5C 86.5,29.8333 86.5,30.1667 86.5,30.5C 83.8333,30.5 81.1667,30.5 78.5,30.5C 78.5,32.8333 78.5,35.1667 78.5,37.5C 81.1667,37.5 83.8333,37.5 86.5,37.5C 86.5,37.8333 86.5,38.1667 86.5,38.5C 83.8333,38.5 81.1667,38.5 78.5,38.5C 78.5,41.1667 78.5,43.8333 78.5,46.5C 81.1667,46.5 83.8333,46.5 86.5,46.5C 86.5,46.8333 86.5,47.1667 86.5,47.5C 83.8333,47.5 81.1667,47.5 78.5,47.5C 78.5,50.1667 78.5,52.8333 78.5,55.5C 81.1667,55.5 83.8333,55.5 86.5,55.5C 86.5,55.8333 86.5,56.1667 86.5,56.5C 83.8333,56.5 81.1667,56.5 78.5,56.5C 78.5,59.1667 78.5,61.8333 78.5,64.5C 81.1667,64.5 83.8333,64.5 86.5,64.5C 86.5,64.8333 86.5,65.1667 86.5,65.5C 83.8333,65.5 81.1667,65.5 78.5,65.5C 78.5,68.1667 78.5,70.8333 78.5,73.5C 80.1667,73.5 81.8333,73.5 83.5,73.5C 81.4244,78.2242 77.7577,81.0575 72.5,82C 54.8333,82.6667 37.1667,82.6667 19.5,82C 15.3875,80.0519 12.0541,77.2186 9.5,73.5C 11.5,73.5 13.5,73.5 15.5,73.5C 15.5,70.8333 15.5,68.1667 15.5,65.5C 12.8333,65.5 10.1667,65.5 7.5,65.5C 7.5,66.5 7.5,67.5 7.5,68.5C 6.16667,51.1667 6.16667,33.8333 7.5,16.5C 7.5,17.8333 7.5,19.1667 7.5,20.5C 10.1667,20.5 12.8333,20.5 15.5,20.5C 15.5,17.8333 15.5,15.1667 15.5,12.5C 13.1667,12.5 10.8333,12.5 8.5,12.5C 10.1667,8.83333 12.8333,6.16667 16.5,4.5C 16.5,6.83333 16.5,9.16667 16.5,11.5C 19.1667,11.5 21.8333,11.5 24.5,11.5C 24.5,8.83333 24.5,6.16667 24.5,3.5C 23.1667,3.5 21.8333,3.5 20.5,3.5 Z"/></g>
<g><path style="opacity:1" fill="#abdcef" d="M 126.5,3.5 C 144.5,2.16667 162.5,2.16667 180.5,3.5C 179.167,3.5 177.833,3.5 176.5,3.5C 176.5,6.16667 176.5,8.83333 176.5,11.5C 179.167,11.5 181.833,11.5 184.5,11.5C 184.5,9.5 184.5,7.5 184.5,5.5C 190.847,8.86943 193.847,14.2028 193.5,21.5C 190.833,21.5 188.167,21.5 185.5,21.5C 185.5,24.1667 185.5,26.8333 185.5,29.5C 188.167,29.5 190.833,29.5 193.5,29.5C 193.5,29.8333 193.5,30.1667 193.5,30.5C 190.833,30.5 188.167,30.5 185.5,30.5C 185.5,32.8333 185.5,35.1667 185.5,37.5C 188.167,37.5 190.833,37.5 193.5,37.5C 193.5,37.8333 193.5,38.1667 193.5,38.5C 190.833,38.5 188.167,38.5 185.5,38.5C 185.5,41.1667 185.5,43.8333 185.5,46.5C 188.167,46.5 190.833,46.5 193.5,46.5C 193.5,46.8333 193.5,47.1667 193.5,47.5C 190.833,47.5 188.167,47.5 185.5,47.5C 185.5,50.1667 185.5,52.8333 185.5,55.5C 188.167,55.5 190.833,55.5 193.5,55.5C 193.5,55.8333 193.5,56.1667 193.5,56.5C 190.833,56.5 188.167,56.5 185.5,56.5C 185.5,59.1667 185.5,61.8333 185.5,64.5C 188.167,64.5 190.833,64.5 193.5,64.5C 193.768,66.099 193.434,67.4324 192.5,68.5C 192.5,67.5 192.5,66.5 192.5,65.5C 190.167,65.5 187.833,65.5 185.5,65.5C 185.5,68.1667 185.5,70.8333 185.5,73.5C 187.167,73.5 188.833,73.5 190.5,73.5C 189.5,76.5 187.5,78.5 184.5,79.5C 184.5,77.8333 184.5,76.1667 184.5,74.5C 181.833,74.5 179.167,74.5 176.5,74.5C 176.5,77.1667 176.5,79.8333 176.5,82.5C 159.658,82.8298 142.992,82.4965 126.5,81.5C 128.167,81.5 129.833,81.5 131.5,81.5C 131.5,79.1667 131.5,76.8333 131.5,74.5C 128.833,74.5 126.167,74.5 123.5,74.5C 123.5,76.5 123.5,78.5 123.5,80.5C 120.145,79.1448 117.811,76.8114 116.5,73.5C 118.5,73.5 120.5,73.5 122.5,73.5C 122.5,70.8333 122.5,68.1667 122.5,65.5C 119.302,64.9644 116.635,65.631 114.5,67.5C 113.167,50.1667 113.167,32.8333 114.5,15.5C 114.5,17.1667 114.5,18.8333 114.5,20.5C 117.167,20.5 119.833,20.5 122.5,20.5C 122.5,17.8333 122.5,15.1667 122.5,12.5C 120.167,12.5 117.833,12.5 115.5,12.5C 117.167,8.83333 119.833,6.16667 123.5,4.5C 123.5,6.83333 123.5,9.16667 123.5,11.5C 126.167,11.5 128.833,11.5 131.5,11.5C 131.5,8.83333 131.5,6.16667 131.5,3.5C 129.833,3.5 128.167,3.5 126.5,3.5 Z"/></g>
<g><path style="opacity:1" fill="#b4e7fc" d="M 20.5,3.5 C 21.8333,3.5 23.1667,3.5 24.5,3.5C 24.5,6.16667 24.5,8.83333 24.5,11.5C 21.8333,11.5 19.1667,11.5 16.5,11.5C 16.5,9.16667 16.5,6.83333 16.5,4.5C 17.5676,3.56552 18.901,3.23219 20.5,3.5 Z"/></g>
<g><path style="opacity:1" fill="#b5e8fc" d="M 25.5,3.5 C 28.1667,3.5 30.8333,3.5 33.5,3.5C 33.5,6.16667 33.5,8.83333 33.5,11.5C 30.8333,11.5 28.1667,11.5 25.5,11.5C 25.5,8.83333 25.5,6.16667 25.5,3.5 Z"/></g>
<g><path style="opacity:1" fill="#b5e8fc" d="M 34.5,3.5 C 37.1667,3.5 39.8333,3.5 42.5,3.5C 42.5,6.16667 42.5,8.83333 42.5,11.5C 39.8333,11.5 37.1667,11.5 34.5,11.5C 34.5,8.83333 34.5,6.16667 34.5,3.5 Z"/></g>
<g><path style="opacity:1" fill="#b5e8fc" d="M 43.5,3.5 C 46.1667,3.5 48.8333,3.5 51.5,3.5C 51.5,6.16667 51.5,8.83333 51.5,11.5C 48.8333,11.5 46.1667,11.5 43.5,11.5C 43.5,8.83333 43.5,6.16667 43.5,3.5 Z"/></g>
<g><path style="opacity:1" fill="#b5e8fc" d="M 52.5,3.5 C 55.1667,3.5 57.8333,3.5 60.5,3.5C 60.5,6.16667 60.5,8.83333 60.5,11.5C 57.8333,11.5 55.1667,11.5 52.5,11.5C 52.5,8.83333 52.5,6.16667 52.5,3.5 Z"/></g>
<g><path style="opacity:1" fill="#b5e8fc" d="M 61.5,3.5 C 64.1667,3.5 66.8333,3.5 69.5,3.5C 69.5,6.16667 69.5,8.83333 69.5,11.5C 66.8333,11.5 64.1667,11.5 61.5,11.5C 61.5,8.83333 61.5,6.16667 61.5,3.5 Z"/></g>
<g><path style="opacity:1" fill="#b5e8fc" d="M 73.5,3.5 C 75.153,3.6596 76.4863,4.32627 77.5,5.5C 77.5,7.5 77.5,9.5 77.5,11.5C 75.1667,11.5 72.8333,11.5 70.5,11.5C 70.5,8.83333 70.5,6.16667 70.5,3.5C 71.5,3.5 72.5,3.5 73.5,3.5 Z"/></g>
<g><path style="opacity:1" fill="#b5e7fc" d="M 126.5,3.5 C 128.167,3.5 129.833,3.5 131.5,3.5C 131.5,6.16667 131.5,8.83333 131.5,11.5C 128.833,11.5 126.167,11.5 123.5,11.5C 123.5,9.16667 123.5,6.83333 123.5,4.5C 124.209,3.59603 125.209,3.26269 126.5,3.5 Z"/></g>
<g><path style="opacity:1" fill="#b5e8fc" d="M 132.5,3.5 C 135.167,3.5 137.833,3.5 140.5,3.5C 140.5,6.16667 140.5,8.83333 140.5,11.5C 137.833,11.5 135.167,11.5 132.5,11.5C 132.5,8.83333 132.5,6.16667 132.5,3.5 Z"/></g>
<g><path style="opacity:1" fill="#b5e8fc" d="M 141.5,3.5 C 144.167,3.5 146.833,3.5 149.5,3.5C 149.5,6.16667 149.5,8.83333 149.5,11.5C 146.833,11.5 144.167,11.5 141.5,11.5C 141.5,8.83333 141.5,6.16667 141.5,3.5 Z"/></g>
<g><path style="opacity:1" fill="#b5e8fc" d="M 150.5,3.5 C 152.833,3.5 155.167,3.5 157.5,3.5C 157.5,6.16667 157.5,8.83333 157.5,11.5C 155.167,11.5 152.833,11.5 150.5,11.5C 150.5,8.83333 150.5,6.16667 150.5,3.5 Z"/></g>
<g><path style="opacity:1" fill="#b5e8fc" d="M 158.5,3.5 C 161.167,3.5 163.833,3.5 166.5,3.5C 166.5,6.16667 166.5,8.83333 166.5,11.5C 163.833,11.5 161.167,11.5 158.5,11.5C 158.5,8.83333 158.5,6.16667 158.5,3.5 Z"/></g>
<g><path style="opacity:1" fill="#b5e8fc" d="M 167.5,3.5 C 170.167,3.5 172.833,3.5 175.5,3.5C 175.5,6.16667 175.5,8.83333 175.5,11.5C 172.833,11.5 170.167,11.5 167.5,11.5C 167.5,8.83333 167.5,6.16667 167.5,3.5 Z"/></g>
<g><path style="opacity:1" fill="#b4e7fc" d="M 180.5,3.5 C 182.38,3.22911 183.713,3.89578 184.5,5.5C 183.713,3.89578 182.38,3.22911 180.5,3.5 Z"/></g>
<g><path style="opacity:1" fill="#b5e7fc" d="M 8.5,12.5 C 10.8333,12.5 13.1667,12.5 15.5,12.5C 15.5,15.1667 15.5,17.8333 15.5,20.5C 12.8333,20.5 10.1667,20.5 7.5,20.5C 7.5,19.1667 7.5,17.8333 7.5,16.5C 7.43255,15.0413 7.76589,13.7079 8.5,12.5 Z"/></g>
<g><path style="opacity:1" fill="#b5e8fc" d="M 16.5,12.5 C 19.1667,12.5 21.8333,12.5 24.5,12.5C 24.5,15.1667 24.5,17.8333 24.5,20.5C 21.8333,20.5 19.1667,20.5 16.5,20.5C 16.5,17.8333 16.5,15.1667 16.5,12.5 Z"/></g>
<g><path style="opacity:1" fill="#b5e8fc" d="M 25.5,12.5 C 28.1667,12.5 30.8333,12.5 33.5,12.5C 33.5,15.1667 33.5,17.8333 33.5,20.5C 30.8333,20.5 28.1667,20.5 25.5,20.5C 25.5,17.8333 25.5,15.1667 25.5,12.5 Z"/></g>
<g><path style="opacity:1" fill="#b5e8fc" d="M 34.5,12.5 C 37.1667,12.5 39.8333,12.5 42.5,12.5C 42.5,15.1667 42.5,17.8333 42.5,20.5C 39.8333,20.5 37.1667,20.5 34.5,20.5C 34.5,17.8333 34.5,15.1667 34.5,12.5 Z"/></g>
<g><path style="opacity:1" fill="#b5e8fc" d="M 43.5,12.5 C 46.1667,12.5 48.8333,12.5 51.5,12.5C 51.5,15.1667 51.5,17.8333 51.5,20.5C 48.8333,20.5 46.1667,20.5 43.5,20.5C 43.5,17.8333 43.5,15.1667 43.5,12.5 Z"/></g>
<g><path style="opacity:1" fill="#b5e8fc" d="M 52.5,12.5 C 55.1667,12.5 57.8333,12.5 60.5,12.5C 60.5,15.1667 60.5,17.8333 60.5,20.5C 57.8333,20.5 55.1667,20.5 52.5,20.5C 52.5,17.8333 52.5,15.1667 52.5,12.5 Z"/></g>
<g><path style="opacity:1" fill="#b5e8fc" d="M 61.5,12.5 C 64.1667,12.5 66.8333,12.5 69.5,12.5C 69.5,15.1667 69.5,17.8333 69.5,20.5C 66.8333,20.5 64.1667,20.5 61.5,20.5C 61.5,17.8333 61.5,15.1667 61.5,12.5 Z"/></g>
<g><path style="opacity:1" fill="#b5e8fc" d="M 70.5,12.5 C 72.8333,12.5 75.1667,12.5 77.5,12.5C 77.5,15.1667 77.5,17.8333 77.5,20.5C 75.1667,20.5 72.8333,20.5 70.5,20.5C 70.5,17.8333 70.5,15.1667 70.5,12.5 Z"/></g>
<g><path style="opacity:1" fill="#b5e7fc" d="M 84.5,12.5 C 86.0395,14.8383 86.7062,17.5049 86.5,20.5C 83.8333,20.5 81.1667,20.5 78.5,20.5C 78.5,17.8333 78.5,15.1667 78.5,12.5C 80.5,12.5 82.5,12.5 84.5,12.5 Z"/></g>
<g><path style="opacity:1" fill="#b4e7fc" d="M 115.5,12.5 C 117.833,12.5 120.167,12.5 122.5,12.5C 122.5,15.1667 122.5,17.8333 122.5,20.5C 119.833,20.5 117.167,20.5 114.5,20.5C 114.5,18.8333 114.5,17.1667 114.5,15.5C 114.263,14.209 114.596,13.209 115.5,12.5 Z"/></g>
<g><path style="opacity:1" fill="#b5e8fc" d="M 123.5,12.5 C 126.167,12.5 128.833,12.5 131.5,12.5C 131.5,15.1667 131.5,17.8333 131.5,20.5C 128.833,20.5 126.167,20.5 123.5,20.5C 123.5,17.8333 123.5,15.1667 123.5,12.5 Z"/></g>
<g><path style="opacity:1" fill="#b5e8fc" d="M 132.5,12.5 C 135.167,12.5 137.833,12.5 140.5,12.5C 140.5,15.1667 140.5,17.8333 140.5,20.5C 137.833,20.5 135.167,20.5 132.5,20.5C 132.5,17.8333 132.5,15.1667 132.5,12.5 Z"/></g>
<g><path style="opacity:1" fill="#b5e8fc" d="M 141.5,12.5 C 144.167,12.5 146.833,12.5 149.5,12.5C 149.5,15.1667 149.5,17.8333 149.5,20.5C 146.833,20.5 144.167,20.5 141.5,20.5C 141.5,17.8333 141.5,15.1667 141.5,12.5 Z"/></g>
<g><path style="opacity:1" fill="#b5e8fc" d="M 150.5,12.5 C 152.833,12.5 155.167,12.5 157.5,12.5C 157.5,15.1667 157.5,17.8333 157.5,20.5C 155.167,20.5 152.833,20.5 150.5,20.5C 150.5,17.8333 150.5,15.1667 150.5,12.5 Z"/></g>
<g><path style="opacity:1" fill="#b5e8fc" d="M 158.5,12.5 C 161.167,12.5 163.833,12.5 166.5,12.5C 166.5,15.1667 166.5,17.8333 166.5,20.5C 163.833,20.5 161.167,20.5 158.5,20.5C 158.5,17.8333 158.5,15.1667 158.5,12.5 Z"/></g>
<g><path style="opacity:1" fill="#b5e8fc" d="M 167.5,12.5 C 170.167,12.5 172.833,12.5 175.5,12.5C 175.5,15.1667 175.5,17.8333 175.5,20.5C 172.833,20.5 170.167,20.5 167.5,20.5C 167.5,17.8333 167.5,15.1667 167.5,12.5 Z"/></g>
<g><path style="opacity:1" fill="#b5e8fc" d="M 176.5,12.5 C 179.167,12.5 181.833,12.5 184.5,12.5C 184.5,15.1667 184.5,17.8333 184.5,20.5C 181.833,20.5 179.167,20.5 176.5,20.5C 176.5,17.8333 176.5,15.1667 176.5,12.5 Z"/></g>
<g><path style="opacity:1" fill="#b5e8fc" d="M 7.5,21.5 C 10.1667,21.5 12.8333,21.5 15.5,21.5C 15.5,24.1667 15.5,26.8333 15.5,29.5C 12.8333,29.5 10.1667,29.5 7.5,29.5C 7.5,26.8333 7.5,24.1667 7.5,21.5 Z"/></g>
<g><path style="opacity:1" fill="#b5e8fc" d="M 16.5,21.5 C 19.1667,21.5 21.8333,21.5 24.5,21.5C 24.5,24.1667 24.5,26.8333 24.5,29.5C 21.8333,29.5 19.1667,29.5 16.5,29.5C 16.5,26.8333 16.5,24.1667 16.5,21.5 Z"/></g>
<g><path style="opacity:1" fill="#b5e8fc" d="M 25.5,21.5 C 28.1667,21.5 30.8333,21.5 33.5,21.5C 33.5,24.1667 33.5,26.8333 33.5,29.5C 30.8333,29.5 28.1667,29.5 25.5,29.5C 25.5,26.8333 25.5,24.1667 25.5,21.5 Z"/></g>
<g><path style="opacity:1" fill="#b5e8fc" d="M 34.5,21.5 C 37.1667,21.5 39.8333,21.5 42.5,21.5C 42.5,24.1667 42.5,26.8333 42.5,29.5C 39.8333,29.5 37.1667,29.5 34.5,29.5C 34.5,26.8333 34.5,24.1667 34.5,21.5 Z"/></g>
<g><path style="opacity:1" fill="#b5e8fc" d="M 43.5,21.5 C 46.1667,21.5 48.8333,21.5 51.5,21.5C 51.5,24.1667 51.5,26.8333 51.5,29.5C 48.8333,29.5 46.1667,29.5 43.5,29.5C 43.5,26.8333 43.5,24.1667 43.5,21.5 Z"/></g>
<g><path style="opacity:1" fill="#b5e8fc" d="M 52.5,21.5 C 55.1667,21.5 57.8333,21.5 60.5,21.5C 60.5,24.1667 60.5,26.8333 60.5,29.5C 57.8333,29.5 55.1667,29.5 52.5,29.5C 52.5,26.8333 52.5,24.1667 52.5,21.5 Z"/></g>
<g><path style="opacity:1" fill="#b5e8fc" d="M 61.5,21.5 C 64.1667,21.5 66.8333,21.5 69.5,21.5C 69.5,24.1667 69.5,26.8333 69.5,29.5C 66.8333,29.5 64.1667,29.5 61.5,29.5C 61.5,26.8333 61.5,24.1667 61.5,21.5 Z"/></g>
<g><path style="opacity:1" fill="#b5e8fc" d="M 70.5,21.5 C 72.8333,21.5 75.1667,21.5 77.5,21.5C 77.5,24.1667 77.5,26.8333 77.5,29.5C 75.1667,29.5 72.8333,29.5 70.5,29.5C 70.5,26.8333 70.5,24.1667 70.5,21.5 Z"/></g>
<g><path style="opacity:1" fill="#b5e8fc" d="M 86.5,21.5 C 86.5,24.1667 86.5,26.8333 86.5,29.5C 83.8333,29.5 81.1667,29.5 78.5,29.5C 78.5,26.8333 78.5,24.1667 78.5,21.5C 81.1667,21.5 83.8333,21.5 86.5,21.5 Z"/></g>
<g><path style="opacity:1" fill="#b5e8fc" d="M 114.5,21.5 C 117.167,21.5 119.833,21.5 122.5,21.5C 122.5,24.1667 122.5,26.8333 122.5,29.5C 119.833,29.5 117.167,29.5 114.5,29.5C 114.5,26.8333 114.5,24.1667 114.5,21.5 Z"/></g>
<g><path style="opacity:1" fill="#b5e8fc" d="M 123.5,21.5 C 126.167,21.5 128.833,21.5 131.5,21.5C 131.5,24.1667 131.5,26.8333 131.5,29.5C 128.833,29.5 126.167,29.5 123.5,29.5C 123.5,26.8333 123.5,24.1667 123.5,21.5 Z"/></g>
<g><path style="opacity:1" fill="#b5e8fc" d="M 132.5,21.5 C 135.167,21.5 137.833,21.5 140.5,21.5C 140.5,24.1667 140.5,26.8333 140.5,29.5C 137.833,29.5 135.167,29.5 132.5,29.5C 132.5,26.8333 132.5,24.1667 132.5,21.5 Z"/></g>
<g><path style="opacity:1" fill="#b5e8fc" d="M 141.5,21.5 C 144.167,21.5 146.833,21.5 149.5,21.5C 149.5,24.1667 149.5,26.8333 149.5,29.5C 146.833,29.5 144.167,29.5 141.5,29.5C 141.5,26.8333 141.5,24.1667 141.5,21.5 Z"/></g>
<g><path style="opacity:1" fill="#b5e8fc" d="M 150.5,21.5 C 152.833,21.5 155.167,21.5 157.5,21.5C 157.5,24.1667 157.5,26.8333 157.5,29.5C 155.167,29.5 152.833,29.5 150.5,29.5C 150.5,26.8333 150.5,24.1667 150.5,21.5 Z"/></g>
<g><path style="opacity:1" fill="#b5e8fc" d="M 158.5,21.5 C 161.167,21.5 163.833,21.5 166.5,21.5C 166.5,24.1667 166.5,26.8333 166.5,29.5C 163.833,29.5 161.167,29.5 158.5,29.5C 158.5,26.8333 158.5,24.1667 158.5,21.5 Z"/></g>
<g><path style="opacity:1" fill="#b5e8fc" d="M 167.5,21.5 C 170.167,21.5 172.833,21.5 175.5,21.5C 175.5,24.1667 175.5,26.8333 175.5,29.5C 172.833,29.5 170.167,29.5 167.5,29.5C 167.5,26.8333 167.5,24.1667 167.5,21.5 Z"/></g>
<g><path style="opacity:1" fill="#b5e8fc" d="M 176.5,21.5 C 179.167,21.5 181.833,21.5 184.5,21.5C 184.5,24.1667 184.5,26.8333 184.5,29.5C 181.833,29.5 179.167,29.5 176.5,29.5C 176.5,26.8333 176.5,24.1667 176.5,21.5 Z"/></g>
<g><path style="opacity:1" fill="#b5e8fc" d="M 193.5,21.5 C 193.5,24.1667 193.5,26.8333 193.5,29.5C 190.833,29.5 188.167,29.5 185.5,29.5C 185.5,26.8333 185.5,24.1667 185.5,21.5C 188.167,21.5 190.833,21.5 193.5,21.5 Z"/></g>
<g><path style="opacity:1" fill="#b5e8fc" d="M 7.5,30.5 C 10.1667,30.5 12.8333,30.5 15.5,30.5C 15.5,32.8333 15.5,35.1667 15.5,37.5C 12.8333,37.5 10.1667,37.5 7.5,37.5C 7.5,35.1667 7.5,32.8333 7.5,30.5 Z"/></g>
<g><path style="opacity:1" fill="#b5e8fc" d="M 16.5,30.5 C 19.1667,30.5 21.8333,30.5 24.5,30.5C 24.5,32.8333 24.5,35.1667 24.5,37.5C 21.8333,37.5 19.1667,37.5 16.5,37.5C 16.5,35.1667 16.5,32.8333 16.5,30.5 Z"/></g>
<g><path style="opacity:1" fill="#b5e8fc" d="M 25.5,30.5 C 28.1667,30.5 30.8333,30.5 33.5,30.5C 33.5,32.8333 33.5,35.1667 33.5,37.5C 30.8333,37.5 28.1667,37.5 25.5,37.5C 25.5,35.1667 25.5,32.8333 25.5,30.5 Z"/></g>
<g><path style="opacity:1" fill="#b5e8fc" d="M 34.5,30.5 C 37.1667,30.5 39.8333,30.5 42.5,30.5C 42.5,32.8333 42.5,35.1667 42.5,37.5C 39.8333,37.5 37.1667,37.5 34.5,37.5C 34.5,35.1667 34.5,32.8333 34.5,30.5 Z"/></g>
<g><path style="opacity:1" fill="#b5e8fc" d="M 43.5,30.5 C 46.1667,30.5 48.8333,30.5 51.5,30.5C 51.5,32.8333 51.5,35.1667 51.5,37.5C 48.8333,37.5 46.1667,37.5 43.5,37.5C 43.5,35.1667 43.5,32.8333 43.5,30.5 Z"/></g>
<g><path style="opacity:1" fill="#b5e8fc" d="M 52.5,30.5 C 55.1667,30.5 57.8333,30.5 60.5,30.5C 60.5,32.8333 60.5,35.1667 60.5,37.5C 57.8333,37.5 55.1667,37.5 52.5,37.5C 52.5,35.1667 52.5,32.8333 52.5,30.5 Z"/></g>
<g><path style="opacity:1" fill="#b5e8fc" d="M 61.5,30.5 C 64.1667,30.5 66.8333,30.5 69.5,30.5C 69.5,32.8333 69.5,35.1667 69.5,37.5C 66.8333,37.5 64.1667,37.5 61.5,37.5C 61.5,35.1667 61.5,32.8333 61.5,30.5 Z"/></g>
<g><path style="opacity:1" fill="#b5e8fc" d="M 86.5,30.5 C 86.5,32.8333 86.5,35.1667 86.5,37.5C 83.8333,37.5 81.1667,37.5 78.5,37.5C 78.5,35.1667 78.5,32.8333 78.5,30.5C 81.1667,30.5 83.8333,30.5 86.5,30.5 Z"/></g>
<g><path style="opacity:1" fill="#b5e8fc" d="M 114.5,30.5 C 117.167,30.5 119.833,30.5 122.5,30.5C 122.5,32.8333 122.5,35.1667 122.5,37.5C 119.833,37.5 117.167,37.5 114.5,37.5C 114.5,35.1667 114.5,32.8333 114.5,30.5 Z"/></g>
<g><path style="opacity:1" fill="#b5e8fc" d="M 123.5,30.5 C 126.167,30.5 128.833,30.5 131.5,30.5C 131.5,32.8333 131.5,35.1667 131.5,37.5C 128.833,37.5 126.167,37.5 123.5,37.5C 123.5,35.1667 123.5,32.8333 123.5,30.5 Z"/></g>
<g><path style="opacity:1" fill="#b5e8fc" d="M 132.5,30.5 C 135.167,30.5 137.833,30.5 140.5,30.5C 140.5,32.8333 140.5,35.1667 140.5,37.5C 137.833,37.5 135.167,37.5 132.5,37.5C 132.5,35.1667 132.5,32.8333 132.5,30.5 Z"/></g>
<g><path style="opacity:1" fill="#b5e8fc" d="M 141.5,30.5 C 144.167,30.5 146.833,30.5 149.5,30.5C 149.5,32.8333 149.5,35.1667 149.5,37.5C 146.833,37.5 144.167,37.5 141.5,37.5C 141.5,35.1667 141.5,32.8333 141.5,30.5 Z"/></g>
<g><path style="opacity:1" fill="#b5e8fc" d="M 158.5,30.5 C 161.167,30.5 163.833,30.5 166.5,30.5C 166.5,32.8333 166.5,35.1667 166.5,37.5C 163.833,37.5 161.167,37.5 158.5,37.5C 158.5,35.1667 158.5,32.8333 158.5,30.5 Z"/></g>
<g><path style="opacity:1" fill="#b5e8fc" d="M 167.5,30.5 C 170.167,30.5 172.833,30.5 175.5,30.5C 175.5,32.8333 175.5,35.1667 175.5,37.5C 172.833,37.5 170.167,37.5 167.5,37.5C 167.5,35.1667 167.5,32.8333 167.5,30.5 Z"/></g>
<g><path style="opacity:1" fill="#b5e8fc" d="M 176.5,30.5 C 179.167,30.5 181.833,30.5 184.5,30.5C 184.5,32.8333 184.5,35.1667 184.5,37.5C 181.833,37.5 179.167,37.5 176.5,37.5C 176.5,35.1667 176.5,32.8333 176.5,30.5 Z"/></g>
<g><path style="opacity:1" fill="#b5e8fc" d="M 193.5,30.5 C 193.5,32.8333 193.5,35.1667 193.5,37.5C 190.833,37.5 188.167,37.5 185.5,37.5C 185.5,35.1667 185.5,32.8333 185.5,30.5C 188.167,30.5 190.833,30.5 193.5,30.5 Z"/></g>
<g><path style="opacity:1" fill="#b5e8fc" d="M 7.5,38.5 C 10.1667,38.5 12.8333,38.5 15.5,38.5C 15.5,41.1667 15.5,43.8333 15.5,46.5C 12.8333,46.5 10.1667,46.5 7.5,46.5C 7.5,43.8333 7.5,41.1667 7.5,38.5 Z"/></g>
<g><path style="opacity:1" fill="#b5e8fc" d="M 16.5,38.5 C 19.1667,38.5 21.8333,38.5 24.5,38.5C 24.5,41.1667 24.5,43.8333 24.5,46.5C 21.8333,46.5 19.1667,46.5 16.5,46.5C 16.5,43.8333 16.5,41.1667 16.5,38.5 Z"/></g>
<g><path style="opacity:1" fill="#b5e8fc" d="M 25.5,38.5 C 28.1667,38.5 30.8333,38.5 33.5,38.5C 33.5,41.1667 33.5,43.8333 33.5,46.5C 30.8333,46.5 28.1667,46.5 25.5,46.5C 25.5,43.8333 25.5,41.1667 25.5,38.5 Z"/></g>
<g><path style="opacity:1" fill="#b5e8fc" d="M 34.5,38.5 C 37.1667,38.5 39.8333,38.5 42.5,38.5C 42.5,41.1667 42.5,43.8333 42.5,46.5C 39.8333,46.5 37.1667,46.5 34.5,46.5C 34.5,43.8333 34.5,41.1667 34.5,38.5 Z"/></g>
<g><path style="opacity:1" fill="#b5e8fc" d="M 43.5,38.5 C 46.1667,38.5 48.8333,38.5 51.5,38.5C 51.5,41.1667 51.5,43.8333 51.5,46.5C 48.8333,46.5 46.1667,46.5 43.5,46.5C 43.5,43.8333 43.5,41.1667 43.5,38.5 Z"/></g>
<g><path style="opacity:1" fill="#b5e8fc" d="M 52.5,38.5 C 55.1667,38.5 57.8333,38.5 60.5,38.5C 60.5,41.1667 60.5,43.8333 60.5,46.5C 57.8333,46.5 55.1667,46.5 52.5,46.5C 52.5,43.8333 52.5,41.1667 52.5,38.5 Z"/></g>
<g><path style="opacity:1" fill="#b5e8fc" d="M 61.5,38.5 C 64.1667,38.5 66.8333,38.5 69.5,38.5C 69.5,41.1667 69.5,43.8333 69.5,46.5C 66.8333,46.5 64.1667,46.5 61.5,46.5C 61.5,43.8333 61.5,41.1667 61.5,38.5 Z"/></g>
<g><path style="opacity:1" fill="#b5e8fc" d="M 70.5,38.5 C 72.8333,38.5 75.1667,38.5 77.5,38.5C 77.5,41.1667 77.5,43.8333 77.5,46.5C 75.1667,46.5 72.8333,46.5 70.5,46.5C 70.5,43.8333 70.5,41.1667 70.5,38.5 Z"/></g>
<g><path style="opacity:1" fill="#b5e8fc" d="M 86.5,38.5 C 86.5,41.1667 86.5,43.8333 86.5,46.5C 83.8333,46.5 81.1667,46.5 78.5,46.5C 78.5,43.8333 78.5,41.1667 78.5,38.5C 81.1667,38.5 83.8333,38.5 86.5,38.5 Z"/></g>
<g><path style="opacity:1" fill="#b5e8fc" d="M 114.5,38.5 C 117.167,38.5 119.833,38.5 122.5,38.5C 122.5,41.1667 122.5,43.8333 122.5,46.5C 119.833,46.5 117.167,46.5 114.5,46.5C 114.5,43.8333 114.5,41.1667 114.5,38.5 Z"/></g>
<g><path style="opacity:1" fill="#b5e8fc" d="M 123.5,38.5 C 126.167,38.5 128.833,38.5 131.5,38.5C 131.5,41.1667 131.5,43.8333 131.5,46.5C 128.833,46.5 126.167,46.5 123.5,46.5C 123.5,43.8333 123.5,41.1667 123.5,38.5 Z"/></g>
<g><path style="opacity:1" fill="#b5e8fc" d="M 132.5,38.5 C 135.167,38.5 137.833,38.5 140.5,38.5C 140.5,41.1667 140.5,43.8333 140.5,46.5C 137.833,46.5 135.167,46.5 132.5,46.5C 132.5,43.8333 132.5,41.1667 132.5,38.5 Z"/></g>
<g><path style="opacity:1" fill="#b5e8fc" d="M 141.5,38.5 C 144.167,38.5 146.833,38.5 149.5,38.5C 149.5,41.1667 149.5,43.8333 149.5,46.5C 146.833,46.5 144.167,46.5 141.5,46.5C 141.5,43.8333 141.5,41.1667 141.5,38.5 Z"/></g>
<g><path style="opacity:1" fill="#b5e8fc" d="M 150.5,38.5 C 152.833,38.5 155.167,38.5 157.5,38.5C 157.5,41.1667 157.5,43.8333 157.5,46.5C 155.167,46.5 152.833,46.5 150.5,46.5C 150.5,43.8333 150.5,41.1667 150.5,38.5 Z"/></g>
<g><path style="opacity:1" fill="#b5e8fc" d="M 158.5,38.5 C 161.167,38.5 163.833,38.5 166.5,38.5C 166.5,41.1667 166.5,43.8333 166.5,46.5C 163.833,46.5 161.167,46.5 158.5,46.5C 158.5,43.8333 158.5,41.1667 158.5,38.5 Z"/></g>
<g><path style="opacity:1" fill="#b5e8fc" d="M 167.5,38.5 C 170.167,38.5 172.833,38.5 175.5,38.5C 175.5,41.1667 175.5,43.8333 175.5,46.5C 172.833,46.5 170.167,46.5 167.5,46.5C 167.5,43.8333 167.5,41.1667 167.5,38.5 Z"/></g>
<g><path style="opacity:1" fill="#b5e8fc" d="M 176.5,38.5 C 179.167,38.5 181.833,38.5 184.5,38.5C 184.5,41.1667 184.5,43.8333 184.5,46.5C 181.833,46.5 179.167,46.5 176.5,46.5C 176.5,43.8333 176.5,41.1667 176.5,38.5 Z"/></g>
<g><path style="opacity:1" fill="#b5e8fc" d="M 193.5,38.5 C 193.5,41.1667 193.5,43.8333 193.5,46.5C 190.833,46.5 188.167,46.5 185.5,46.5C 185.5,43.8333 185.5,41.1667 185.5,38.5C 188.167,38.5 190.833,38.5 193.5,38.5 Z"/></g>
<g><path style="opacity:1" fill="#b5e8fc" d="M 7.5,47.5 C 10.1667,47.5 12.8333,47.5 15.5,47.5C 15.5,50.1667 15.5,52.8333 15.5,55.5C 12.8333,55.5 10.1667,55.5 7.5,55.5C 7.5,52.8333 7.5,50.1667 7.5,47.5 Z"/></g>
<g><path style="opacity:1" fill="#b5e8fc" d="M 16.5,47.5 C 19.1667,47.5 21.8333,47.5 24.5,47.5C 24.5,50.1667 24.5,52.8333 24.5,55.5C 21.8333,55.5 19.1667,55.5 16.5,55.5C 16.5,52.8333 16.5,50.1667 16.5,47.5 Z"/></g>
<g><path style="opacity:1" fill="#b5e8fc" d="M 25.5,47.5 C 28.1667,47.5 30.8333,47.5 33.5,47.5C 33.5,50.1667 33.5,52.8333 33.5,55.5C 30.8333,55.5 28.1667,55.5 25.5,55.5C 25.5,52.8333 25.5,50.1667 25.5,47.5 Z"/></g>
<g><path style="opacity:1" fill="#b5e8fc" d="M 34.5,47.5 C 37.1667,47.5 39.8333,47.5 42.5,47.5C 42.5,50.1667 42.5,52.8333 42.5,55.5C 39.8333,55.5 37.1667,55.5 34.5,55.5C 34.5,52.8333 34.5,50.1667 34.5,47.5 Z"/></g>
<g><path style="opacity:1" fill="#b5e8fc" d="M 43.5,47.5 C 46.1667,47.5 48.8333,47.5 51.5,47.5C 51.5,50.1667 51.5,52.8333 51.5,55.5C 48.8333,55.5 46.1667,55.5 43.5,55.5C 43.5,52.8333 43.5,50.1667 43.5,47.5 Z"/></g>
<g><path style="opacity:1" fill="#b5e8fc" d="M 52.5,47.5 C 55.1667,47.5 57.8333,47.5 60.5,47.5C 60.5,50.1667 60.5,52.8333 60.5,55.5C 57.8333,55.5 55.1667,55.5 52.5,55.5C 52.5,52.8333 52.5,50.1667 52.5,47.5 Z"/></g>
<g><path style="opacity:1" fill="#b5e8fc" d="M 61.5,47.5 C 64.1667,47.5 66.8333,47.5 69.5,47.5C 69.5,50.1667 69.5,52.8333 69.5,55.5C 66.8333,55.5 64.1667,55.5 61.5,55.5C 61.5,52.8333 61.5,50.1667 61.5,47.5 Z"/></g>
<g><path style="opacity:1" fill="#b5e8fc" d="M 70.5,47.5 C 72.8333,47.5 75.1667,47.5 77.5,47.5C 77.5,50.1667 77.5,52.8333 77.5,55.5C 75.1667,55.5 72.8333,55.5 70.5,55.5C 70.5,52.8333 70.5,50.1667 70.5,47.5 Z"/></g>
<g><path style="opacity:1" fill="#b5e8fc" d="M 86.5,47.5 C 86.5,50.1667 86.5,52.8333 86.5,55.5C 83.8333,55.5 81.1667,55.5 78.5,55.5C 78.5,52.8333 78.5,50.1667 78.5,47.5C 81.1667,47.5 83.8333,47.5 86.5,47.5 Z"/></g>
<g><path style="opacity:1" fill="#b5e8fc" d="M 114.5,47.5 C 117.167,47.5 119.833,47.5 122.5,47.5C 122.5,50.1667 122.5,52.8333 122.5,55.5C 119.833,55.5 117.167,55.5 114.5,55.5C 114.5,52.8333 114.5,50.1667 114.5,47.5 Z"/></g>
<g><path style="opacity:1" fill="#b5e8fc" d="M 123.5,47.5 C 126.167,47.5 128.833,47.5 131.5,47.5C 131.5,50.1667 131.5,52.8333 131.5,55.5C 128.833,55.5 126.167,55.5 123.5,55.5C 123.5,52.8333 123.5,50.1667 123.5,47.5 Z"/></g>
<g><path style="opacity:1" fill="#b5e8fc" d="M 132.5,47.5 C 135.167,47.5 137.833,47.5 140.5,47.5C 140.5,50.1667 140.5,52.8333 140.5,55.5C 137.833,55.5 135.167,55.5 132.5,55.5C 132.5,52.8333 132.5,50.1667 132.5,47.5 Z"/></g>
<g><path style="opacity:1" fill="#b5e8fc" d="M 141.5,47.5 C 144.167,47.5 146.833,47.5 149.5,47.5C 149.5,50.1667 149.5,52.8333 149.5,55.5C 146.833,55.5 144.167,55.5 141.5,55.5C 141.5,52.8333 141.5,50.1667 141.5,47.5 Z"/></g>
<g><path style="opacity:1" fill="#b5e8fc" d="M 150.5,47.5 C 152.833,47.5 155.167,47.5 157.5,47.5C 157.5,50.1667 157.5,52.8333 157.5,55.5C 155.167,55.5 152.833,55.5 150.5,55.5C 150.5,52.8333 150.5,50.1667 150.5,47.5 Z"/></g>
<g><path style="opacity:1" fill="#b5e8fc" d="M 158.5,47.5 C 161.167,47.5 163.833,47.5 166.5,47.5C 166.5,50.1667 166.5,52.8333 166.5,55.5C 163.833,55.5 161.167,55.5 158.5,55.5C 158.5,52.8333 158.5,50.1667 158.5,47.5 Z"/></g>
<g><path style="opacity:1" fill="#b5e8fc" d="M 167.5,47.5 C 170.167,47.5 172.833,47.5 175.5,47.5C 175.5,50.1667 175.5,52.8333 175.5,55.5C 172.833,55.5 170.167,55.5 167.5,55.5C 167.5,52.8333 167.5,50.1667 167.5,47.5 Z"/></g>
<g><path style="opacity:1" fill="#b5e8fc" d="M 176.5,47.5 C 179.167,47.5 181.833,47.5 184.5,47.5C 184.5,50.1667 184.5,52.8333 184.5,55.5C 181.833,55.5 179.167,55.5 176.5,55.5C 176.5,52.8333 176.5,50.1667 176.5,47.5 Z"/></g>
<g><path style="opacity:1" fill="#b5e8fc" d="M 193.5,47.5 C 193.5,50.1667 193.5,52.8333 193.5,55.5C 190.833,55.5 188.167,55.5 185.5,55.5C 185.5,52.8333 185.5,50.1667 185.5,47.5C 188.167,47.5 190.833,47.5 193.5,47.5 Z"/></g>
<g><path style="opacity:1" fill="#b5e8fc" d="M 7.5,56.5 C 10.1667,56.5 12.8333,56.5 15.5,56.5C 15.5,59.1667 15.5,61.8333 15.5,64.5C 12.8333,64.5 10.1667,64.5 7.5,64.5C 7.5,61.8333 7.5,59.1667 7.5,56.5 Z"/></g>
<g><path style="opacity:1" fill="#b5e8fc" d="M 16.5,56.5 C 19.1667,56.5 21.8333,56.5 24.5,56.5C 24.5,59.1667 24.5,61.8333 24.5,64.5C 21.8333,64.5 19.1667,64.5 16.5,64.5C 16.5,61.8333 16.5,59.1667 16.5,56.5 Z"/></g>
<g><path style="opacity:1" fill="#b5e8fc" d="M 25.5,56.5 C 28.1667,56.5 30.8333,56.5 33.5,56.5C 33.5,59.1667 33.5,61.8333 33.5,64.5C 30.8333,64.5 28.1667,64.5 25.5,64.5C 25.5,61.8333 25.5,59.1667 25.5,56.5 Z"/></g>
<g><path style="opacity:1" fill="#b5e8fc" d="M 34.5,56.5 C 37.1667,56.5 39.8333,56.5 42.5,56.5C 42.5,59.1667 42.5,61.8333 42.5,64.5C 39.8333,64.5 37.1667,64.5 34.5,64.5C 34.5,61.8333 34.5,59.1667 34.5,56.5 Z"/></g>
<g><path style="opacity:1" fill="#b5e8fc" d="M 43.5,56.5 C 46.1667,56.5 48.8333,56.5 51.5,56.5C 51.5,59.1667 51.5,61.8333 51.5,64.5C 48.8333,64.5 46.1667,64.5 43.5,64.5C 43.5,61.8333 43.5,59.1667 43.5,56.5 Z"/></g>
<g><path style="opacity:1" fill="#b5e8fc" d="M 52.5,56.5 C 55.1667,56.5 57.8333,56.5 60.5,56.5C 60.5,59.1667 60.5,61.8333 60.5,64.5C 57.8333,64.5 55.1667,64.5 52.5,64.5C 52.5,61.8333 52.5,59.1667 52.5,56.5 Z"/></g>
<g><path style="opacity:1" fill="#b5e8fc" d="M 61.5,56.5 C 64.1667,56.5 66.8333,56.5 69.5,56.5C 69.5,59.1667 69.5,61.8333 69.5,64.5C 66.8333,64.5 64.1667,64.5 61.5,64.5C 61.5,61.8333 61.5,59.1667 61.5,56.5 Z"/></g>
<g><path style="opacity:1" fill="#b5e8fc" d="M 70.5,56.5 C 72.8333,56.5 75.1667,56.5 77.5,56.5C 77.5,59.1667 77.5,61.8333 77.5,64.5C 75.1667,64.5 72.8333,64.5 70.5,64.5C 70.5,61.8333 70.5,59.1667 70.5,56.5 Z"/></g>
<g><path style="opacity:1" fill="#b5e8fc" d="M 86.5,56.5 C 86.5,59.1667 86.5,61.8333 86.5,64.5C 83.8333,64.5 81.1667,64.5 78.5,64.5C 78.5,61.8333 78.5,59.1667 78.5,56.5C 81.1667,56.5 83.8333,56.5 86.5,56.5 Z"/></g>
<g><path style="opacity:1" fill="#b5e8fc" d="M 114.5,56.5 C 117.167,56.5 119.833,56.5 122.5,56.5C 122.5,59.1667 122.5,61.8333 122.5,64.5C 119.833,64.5 117.167,64.5 114.5,64.5C 114.5,61.8333 114.5,59.1667 114.5,56.5 Z"/></g>
<g><path style="opacity:1" fill="#b5e8fc" d="M 123.5,56.5 C 126.167,56.5 128.833,56.5 131.5,56.5C 131.5,59.1667 131.5,61.8333 131.5,64.5C 128.833,64.5 126.167,64.5 123.5,64.5C 123.5,61.8333 123.5,59.1667 123.5,56.5 Z"/></g>
<g><path style="opacity:1" fill="#b5e8fc" d="M 132.5,56.5 C 135.167,56.5 137.833,56.5 140.5,56.5C 140.5,59.1667 140.5,61.8333 140.5,64.5C 137.833,64.5 135.167,64.5 132.5,64.5C 132.5,61.8333 132.5,59.1667 132.5,56.5 Z"/></g>
<g><path style="opacity:1" fill="#b5e8fc" d="M 141.5,56.5 C 144.167,56.5 146.833,56.5 149.5,56.5C 149.5,59.1667 149.5,61.8333 149.5,64.5C 146.833,64.5 144.167,64.5 141.5,64.5C 141.5,61.8333 141.5,59.1667 141.5,56.5 Z"/></g>
<g><path style="opacity:1" fill="#b5e8fc" d="M 150.5,56.5 C 152.833,56.5 155.167,56.5 157.5,56.5C 157.5,59.1667 157.5,61.8333 157.5,64.5C 155.167,64.5 152.833,64.5 150.5,64.5C 150.5,61.8333 150.5,59.1667 150.5,56.5 Z"/></g>
<g><path style="opacity:1" fill="#b5e8fc" d="M 158.5,56.5 C 161.167,56.5 163.833,56.5 166.5,56.5C 166.5,59.1667 166.5,61.8333 166.5,64.5C 163.833,64.5 161.167,64.5 158.5,64.5C 158.5,61.8333 158.5,59.1667 158.5,56.5 Z"/></g>
<g><path style="opacity:1" fill="#b5e8fc" d="M 167.5,56.5 C 170.167,56.5 172.833,56.5 175.5,56.5C 175.5,59.1667 175.5,61.8333 175.5,64.5C 172.833,64.5 170.167,64.5 167.5,64.5C 167.5,61.8333 167.5,59.1667 167.5,56.5 Z"/></g>
<g><path style="opacity:1" fill="#b5e8fc" d="M 176.5,56.5 C 179.167,56.5 181.833,56.5 184.5,56.5C 184.5,59.1667 184.5,61.8333 184.5,64.5C 181.833,64.5 179.167,64.5 176.5,64.5C 176.5,61.8333 176.5,59.1667 176.5,56.5 Z"/></g>
<g><path style="opacity:1" fill="#b5e8fc" d="M 193.5,56.5 C 193.5,59.1667 193.5,61.8333 193.5,64.5C 190.833,64.5 188.167,64.5 185.5,64.5C 185.5,61.8333 185.5,59.1667 185.5,56.5C 188.167,56.5 190.833,56.5 193.5,56.5 Z"/></g>
<g><path style="opacity:1" fill="#b5e7fc" d="M 9.5,73.5 C 8.5592,71.9505 7.89254,70.2838 7.5,68.5C 7.5,67.5 7.5,66.5 7.5,65.5C 10.1667,65.5 12.8333,65.5 15.5,65.5C 15.5,68.1667 15.5,70.8333 15.5,73.5C 13.5,73.5 11.5,73.5 9.5,73.5 Z"/></g>
<g><path style="opacity:1" fill="#b5e8fc" d="M 16.5,65.5 C 19.1667,65.5 21.8333,65.5 24.5,65.5C 24.5,68.1667 24.5,70.8333 24.5,73.5C 21.8333,73.5 19.1667,73.5 16.5,73.5C 16.5,70.8333 16.5,68.1667 16.5,65.5 Z"/></g>
<g><path style="opacity:1" fill="#b5e8fc" d="M 25.5,65.5 C 28.1667,65.5 30.8333,65.5 33.5,65.5C 33.5,68.1667 33.5,70.8333 33.5,73.5C 30.8333,73.5 28.1667,73.5 25.5,73.5C 25.5,70.8333 25.5,68.1667 25.5,65.5 Z"/></g>
<g><path style="opacity:1" fill="#b5e8fc" d="M 34.5,65.5 C 37.1667,65.5 39.8333,65.5 42.5,65.5C 42.5,68.1667 42.5,70.8333 42.5,73.5C 39.8333,73.5 37.1667,73.5 34.5,73.5C 34.5,70.8333 34.5,68.1667 34.5,65.5 Z"/></g>
<g><path style="opacity:1" fill="#b5e8fc" d="M 43.5,65.5 C 46.1667,65.5 48.8333,65.5 51.5,65.5C 51.5,68.1667 51.5,70.8333 51.5,73.5C 48.8333,73.5 46.1667,73.5 43.5,73.5C 43.5,70.8333 43.5,68.1667 43.5,65.5 Z"/></g>
<g><path style="opacity:1" fill="#b5e8fc" d="M 52.5,65.5 C 55.1667,65.5 57.8333,65.5 60.5,65.5C 60.5,68.1667 60.5,70.8333 60.5,73.5C 57.8333,73.5 55.1667,73.5 52.5,73.5C 52.5,70.8333 52.5,68.1667 52.5,65.5 Z"/></g>
<g><path style="opacity:1" fill="#b5e8fc" d="M 61.5,65.5 C 64.1667,65.5 66.8333,65.5 69.5,65.5C 69.5,68.1667 69.5,70.8333 69.5,73.5C 66.8333,73.5 64.1667,73.5 61.5,73.5C 61.5,70.8333 61.5,68.1667 61.5,65.5 Z"/></g>
<g><path style="opacity:1" fill="#b5e8fc" d="M 70.5,65.5 C 72.8333,65.5 75.1667,65.5 77.5,65.5C 77.5,68.1667 77.5,70.8333 77.5,73.5C 75.1667,73.5 72.8333,73.5 70.5,73.5C 70.5,70.8333 70.5,68.1667 70.5,65.5 Z"/></g>
<g><path style="opacity:1" fill="#b5e7fc" d="M 86.5,65.5 C 86.6545,68.716 85.6545,71.3826 83.5,73.5C 81.8333,73.5 80.1667,73.5 78.5,73.5C 78.5,70.8333 78.5,68.1667 78.5,65.5C 81.1667,65.5 83.8333,65.5 86.5,65.5 Z"/></g>
<g><path style="opacity:1" fill="#b5e7fc" d="M 116.5,73.5 C 114.926,71.8984 114.259,69.8984 114.5,67.5C 116.635,65.631 119.302,64.9644 122.5,65.5C 122.5,68.1667 122.5,70.8333 122.5,73.5C 120.5,73.5 118.5,73.5 116.5,73.5 Z"/></g>
<g><path style="opacity:1" fill="#b5e8fc" d="M 123.5,65.5 C 126.167,65.5 128.833,65.5 131.5,65.5C 131.5,68.1667 131.5,70.8333 131.5,73.5C 128.833,73.5 126.167,73.5 123.5,73.5C 123.5,70.8333 123.5,68.1667 123.5,65.5 Z"/></g>
<g><path style="opacity:1" fill="#b5e8fc" d="M 132.5,65.5 C 135.167,65.5 137.833,65.5 140.5,65.5C 140.5,68.1667 140.5,70.8333 140.5,73.5C 137.833,73.5 135.167,73.5 132.5,73.5C 132.5,70.8333 132.5,68.1667 132.5,65.5 Z"/></g>
<g><path style="opacity:1" fill="#b5e8fc" d="M 141.5,65.5 C 144.167,65.5 146.833,65.5 149.5,65.5C 149.5,68.1667 149.5,70.8333 149.5,73.5C 146.833,73.5 144.167,73.5 141.5,73.5C 141.5,70.8333 141.5,68.1667 141.5,65.5 Z"/></g>
<g><path style="opacity:1" fill="#b5e8fc" d="M 150.5,65.5 C 152.833,65.5 155.167,65.5 157.5,65.5C 157.5,68.1667 157.5,70.8333 157.5,73.5C 155.167,73.5 152.833,73.5 150.5,73.5C 150.5,70.8333 150.5,68.1667 150.5,65.5 Z"/></g>
<g><path style="opacity:1" fill="#b5e8fc" d="M 158.5,65.5 C 161.167,65.5 163.833,65.5 166.5,65.5C 166.5,68.1667 166.5,70.8333 166.5,73.5C 163.833,73.5 161.167,73.5 158.5,73.5C 158.5,70.8333 158.5,68.1667 158.5,65.5 Z"/></g>
<g><path style="opacity:1" fill="#b5e8fc" d="M 167.5,65.5 C 170.167,65.5 172.833,65.5 175.5,65.5C 175.5,68.1667 175.5,70.8333 175.5,73.5C 172.833,73.5 170.167,73.5 167.5,73.5C 167.5,70.8333 167.5,68.1667 167.5,65.5 Z"/></g>
<g><path style="opacity:1" fill="#b5e8fc" d="M 176.5,65.5 C 179.167,65.5 181.833,65.5 184.5,65.5C 184.5,68.1667 184.5,70.8333 184.5,73.5C 181.833,73.5 179.167,73.5 176.5,73.5C 176.5,70.8333 176.5,68.1667 176.5,65.5 Z"/></g>
<g><path style="opacity:1" fill="#b5e7fc" d="M 192.5,68.5 C 192.598,70.5529 191.931,72.2196 190.5,73.5C 188.833,73.5 187.167,73.5 185.5,73.5C 185.5,70.8333 185.5,68.1667 185.5,65.5C 187.833,65.5 190.167,65.5 192.5,65.5C 192.5,66.5 192.5,67.5 192.5,68.5 Z"/></g>
<g><path style="opacity:1" fill="#b5e8fc" d="M 25.5,74.5 C 28.1667,74.5 30.8333,74.5 33.5,74.5C 33.5,76.8333 33.5,79.1667 33.5,81.5C 30.8333,81.5 28.1667,81.5 25.5,81.5C 25.5,79.1667 25.5,76.8333 25.5,74.5 Z"/></g>
<g><path style="opacity:1" fill="#b5e8fc" d="M 34.5,74.5 C 37.1667,74.5 39.8333,74.5 42.5,74.5C 42.5,76.8333 42.5,79.1667 42.5,81.5C 39.8333,81.5 37.1667,81.5 34.5,81.5C 34.5,79.1667 34.5,76.8333 34.5,74.5 Z"/></g>
<g><path style="opacity:1" fill="#b5e8fc" d="M 43.5,74.5 C 46.1667,74.5 48.8333,74.5 51.5,74.5C 51.5,76.8333 51.5,79.1667 51.5,81.5C 48.8333,81.5 46.1667,81.5 43.5,81.5C 43.5,79.1667 43.5,76.8333 43.5,74.5 Z"/></g>
<g><path style="opacity:1" fill="#b5e8fc" d="M 52.5,74.5 C 55.1667,74.5 57.8333,74.5 60.5,74.5C 60.5,76.8333 60.5,79.1667 60.5,81.5C 57.8333,81.5 55.1667,81.5 52.5,81.5C 52.5,79.1667 52.5,76.8333 52.5,74.5 Z"/></g>
<g><path style="opacity:1" fill="#b5e8fc" d="M 61.5,74.5 C 64.1667,74.5 66.8333,74.5 69.5,74.5C 69.5,76.8333 69.5,79.1667 69.5,81.5C 66.8333,81.5 64.1667,81.5 61.5,81.5C 61.5,79.1667 61.5,76.8333 61.5,74.5 Z"/></g>
<g><path style="opacity:1" fill="#b4e7fc" d="M 126.5,81.5 C 125.209,81.7373 124.209,81.404 123.5,80.5C 123.5,78.5 123.5,76.5 123.5,74.5C 126.167,74.5 128.833,74.5 131.5,74.5C 131.5,76.8333 131.5,79.1667 131.5,81.5C 129.833,81.5 128.167,81.5 126.5,81.5 Z"/></g>
<g><path style="opacity:1" fill="#b5e8fc" d="M 132.5,74.5 C 135.167,74.5 137.833,74.5 140.5,74.5C 140.5,76.8333 140.5,79.1667 140.5,81.5C 137.833,81.5 135.167,81.5 132.5,81.5C 132.5,79.1667 132.5,76.8333 132.5,74.5 Z"/></g>
<g><path style="opacity:1" fill="#b5e8fc" d="M 141.5,74.5 C 144.167,74.5 146.833,74.5 149.5,74.5C 149.5,76.8333 149.5,79.1667 149.5,81.5C 146.833,81.5 144.167,81.5 141.5,81.5C 141.5,79.1667 141.5,76.8333 141.5,74.5 Z"/></g>
<g><path style="opacity:1" fill="#b5e8fc" d="M 158.5,74.5 C 161.167,74.5 163.833,74.5 166.5,74.5C 166.5,76.8333 166.5,79.1667 166.5,81.5C 163.833,81.5 161.167,81.5 158.5,81.5C 158.5,79.1667 158.5,76.8333 158.5,74.5 Z"/></g>
<g><path style="opacity:1" fill="#b5e8fc" d="M 167.5,74.5 C 170.167,74.5 172.833,74.5 175.5,74.5C 175.5,76.8333 175.5,79.1667 175.5,81.5C 172.833,81.5 170.167,81.5 167.5,81.5C 167.5,79.1667 167.5,76.8333 167.5,74.5 Z"/></g>
<g><path style="opacity:1" fill="#b4e7fc" d="M 184.5,79.5 C 182.098,80.9925 179.431,81.9925 176.5,82.5C 176.5,79.8333 176.5,77.1667 176.5,74.5C 179.167,74.5 181.833,74.5 184.5,74.5C 184.5,76.1667 184.5,77.8333 184.5,79.5 Z"/></g>
<g><path style="opacity:1" fill="#aadbee" d="M 18.5,110.5 C 36.9955,109.338 55.6621,109.171 74.5,110C 79.2281,111.231 82.5615,114.064 84.5,118.5C 82.5,118.5 80.5,118.5 78.5,118.5C 78.5,121.167 78.5,123.833 78.5,126.5C 81.1667,126.5 83.8333,126.5 86.5,126.5C 86.5,126.833 86.5,127.167 86.5,127.5C 83.8333,127.5 81.1667,127.5 78.5,127.5C 78.5,130.167 78.5,132.833 78.5,135.5C 81.1667,135.5 83.8333,135.5 86.5,135.5C 86.5,135.833 86.5,136.167 86.5,136.5C 83.8333,136.5 81.1667,136.5 78.5,136.5C 78.5,139.167 78.5,141.833 78.5,144.5C 81.1667,144.5 83.8333,144.5 86.5,144.5C 86.5,144.833 86.5,145.167 86.5,145.5C 83.8333,145.5 81.1667,145.5 78.5,145.5C 78.5,148.167 78.5,150.833 78.5,153.5C 81.1667,153.5 83.8333,153.5 86.5,153.5C 86.5,153.833 86.5,154.167 86.5,154.5C 83.8333,154.5 81.1667,154.5 78.5,154.5C 78.5,157.167 78.5,159.833 78.5,162.5C 81.1667,162.5 83.8333,162.5 86.5,162.5C 86.5,162.833 86.5,163.167 86.5,163.5C 83.8333,163.5 81.1667,163.5 78.5,163.5C 78.5,166.167 78.5,168.833 78.5,171.5C 81.1667,171.5 83.8333,171.5 86.5,171.5C 86.5,171.833 86.5,172.167 86.5,172.5C 83.8333,172.5 81.1667,172.5 78.5,172.5C 78.5,175.167 78.5,177.833 78.5,180.5C 80.1667,180.5 81.8333,180.5 83.5,180.5C 80.5858,186.053 75.9191,188.72 69.5,188.5C 69.5,186.167 69.5,183.833 69.5,181.5C 66.8333,181.5 64.1667,181.5 61.5,181.5C 61.5,183.833 61.5,186.167 61.5,188.5C 61.1667,188.5 60.8333,188.5 60.5,188.5C 60.5,186.167 60.5,183.833 60.5,181.5C 57.8333,181.5 55.1667,181.5 52.5,181.5C 52.5,183.833 52.5,186.167 52.5,188.5C 52.1667,188.5 51.8333,188.5 51.5,188.5C 51.5,186.167 51.5,183.833 51.5,181.5C 48.8333,181.5 46.1667,181.5 43.5,181.5C 43.5,183.833 43.5,186.167 43.5,188.5C 43.1667,188.5 42.8333,188.5 42.5,188.5C 42.5,186.167 42.5,183.833 42.5,181.5C 39.8333,181.5 37.1667,181.5 34.5,181.5C 34.5,183.833 34.5,186.167 34.5,188.5C 34.1667,188.5 33.8333,188.5 33.5,188.5C 33.5,186.167 33.5,183.833 33.5,181.5C 30.8333,181.5 28.1667,181.5 25.5,181.5C 25.5,183.833 25.5,186.167 25.5,188.5C 25.1667,188.5 24.8333,188.5 24.5,188.5C 24.5,186.167 24.5,183.833 24.5,181.5C 21.8333,181.5 19.1667,181.5 16.5,181.5C 16.5,183.167 16.5,184.833 16.5,186.5C 13.5726,185.243 11.2393,183.243 9.5,180.5C 11.5,180.5 13.5,180.5 15.5,180.5C 15.5,177.833 15.5,175.167 15.5,172.5C 12.6146,172.194 9.9479,172.527 7.5,173.5C 6.16667,156.5 6.16667,139.5 7.5,122.5C 7.5,123.833 7.5,125.167 7.5,126.5C 10.1667,126.5 12.8333,126.5 15.5,126.5C 15.5,123.833 15.5,121.167 15.5,118.5C 13.5,118.5 11.5,118.5 9.5,118.5C 10.8333,115.167 13.1667,112.833 16.5,111.5C 16.5,113.5 16.5,115.5 16.5,117.5C 19.1667,117.5 21.8333,117.5 24.5,117.5C 24.5,115.167 24.5,112.833 24.5,110.5C 22.5,110.5 20.5,110.5 18.5,110.5 Z"/></g>
<g><path style="opacity:1" fill="#acdcef" d="M 125.5,110.5 C 143.833,109.167 162.167,109.167 180.5,110.5C 179.167,110.5 177.833,110.5 176.5,110.5C 176.5,112.833 176.5,115.167 176.5,117.5C 179.167,117.5 181.833,117.5 184.5,117.5C 184.5,115.5 184.5,113.5 184.5,111.5C 187.167,113.5 189.5,115.833 191.5,118.5C 189.5,118.5 187.5,118.5 185.5,118.5C 185.5,121.167 185.5,123.833 185.5,126.5C 187.833,126.5 190.167,126.5 192.5,126.5C 192.5,125.167 192.5,123.833 192.5,122.5C 193.451,123.919 193.784,125.585 193.5,127.5C 190.833,127.5 188.167,127.5 185.5,127.5C 185.5,130.167 185.5,132.833 185.5,135.5C 188.167,135.5 190.833,135.5 193.5,135.5C 193.5,135.833 193.5,136.167 193.5,136.5C 190.833,136.5 188.167,136.5 185.5,136.5C 185.5,139.167 185.5,141.833 185.5,144.5C 188.167,144.5 190.833,144.5 193.5,144.5C 193.5,144.833 193.5,145.167 193.5,145.5C 190.833,145.5 188.167,145.5 185.5,145.5C 185.5,148.167 185.5,150.833 185.5,153.5C 188.167,153.5 190.833,153.5 193.5,153.5C 193.5,153.833 193.5,154.167 193.5,154.5C 190.833,154.5 188.167,154.5 185.5,154.5C 185.5,157.167 185.5,159.833 185.5,162.5C 188.167,162.5 190.833,162.5 193.5,162.5C 193.5,162.833 193.5,163.167 193.5,163.5C 190.833,163.5 188.167,163.5 185.5,163.5C 185.5,166.167 185.5,168.833 185.5,171.5C 188.167,171.5 190.833,171.5 193.5,171.5C 193.737,172.791 193.404,173.791 192.5,174.5C 190.721,172.656 188.388,171.99 185.5,172.5C 185.5,175.167 185.5,177.833 185.5,180.5C 187.167,180.5 188.833,180.5 190.5,180.5C 187.063,186.052 182.063,188.719 175.5,188.5C 175.5,186.167 175.5,183.833 175.5,181.5C 172.833,181.5 170.167,181.5 167.5,181.5C 167.5,183.833 167.5,186.167 167.5,188.5C 167.167,188.5 166.833,188.5 166.5,188.5C 166.5,186.167 166.5,183.833 166.5,181.5C 163.833,181.5 161.167,181.5 158.5,181.5C 158.5,183.833 158.5,186.167 158.5,188.5C 155.5,188.5 152.5,188.5 149.5,188.5C 149.5,186.167 149.5,183.833 149.5,181.5C 146.833,181.5 144.167,181.5 141.5,181.5C 141.5,183.833 141.5,186.167 141.5,188.5C 141.167,188.5 140.833,188.5 140.5,188.5C 140.5,186.167 140.5,183.833 140.5,181.5C 137.833,181.5 135.167,181.5 132.5,181.5C 132.5,183.833 132.5,186.167 132.5,188.5C 125.594,189.047 120.261,186.38 116.5,180.5C 118.5,180.5 120.5,180.5 122.5,180.5C 122.5,177.833 122.5,175.167 122.5,172.5C 119.302,171.964 116.635,172.631 114.5,174.5C 113.167,156.833 113.167,139.167 114.5,121.5C 114.5,123.167 114.5,124.833 114.5,126.5C 117.167,126.5 119.833,126.5 122.5,126.5C 122.5,123.833 122.5,121.167 122.5,118.5C 120.167,118.5 117.833,118.5 115.5,118.5C 117.569,115.427 120.236,113.094 123.5,111.5C 123.5,113.5 123.5,115.5 123.5,117.5C 126.167,117.5 128.833,117.5 131.5,117.5C 131.5,115.167 131.5,112.833 131.5,110.5C 129.5,110.5 127.5,110.5 125.5,110.5 Z"/></g>
<g><path style="opacity:1" fill="#b5e7fc" d="M 18.5,110.5 C 20.5,110.5 22.5,110.5 24.5,110.5C 24.5,112.833 24.5,115.167 24.5,117.5C 21.8333,117.5 19.1667,117.5 16.5,117.5C 16.5,115.5 16.5,113.5 16.5,111.5C 16.8417,110.662 17.5084,110.328 18.5,110.5 Z"/></g>
<g><path style="opacity:1" fill="#b5e8fc" d="M 25.5,110.5 C 28.1667,110.5 30.8333,110.5 33.5,110.5C 33.5,112.833 33.5,115.167 33.5,117.5C 30.8333,117.5 28.1667,117.5 25.5,117.5C 25.5,115.167 25.5,112.833 25.5,110.5 Z"/></g>
<g><path style="opacity:1" fill="#b5e8fc" d="M 34.5,110.5 C 37.1667,110.5 39.8333,110.5 42.5,110.5C 42.5,112.833 42.5,115.167 42.5,117.5C 39.8333,117.5 37.1667,117.5 34.5,117.5C 34.5,115.167 34.5,112.833 34.5,110.5 Z"/></g>
<g><path style="opacity:1" fill="#b5e8fc" d="M 43.5,110.5 C 46.1667,110.5 48.8333,110.5 51.5,110.5C 51.5,112.833 51.5,115.167 51.5,117.5C 48.8333,117.5 46.1667,117.5 43.5,117.5C 43.5,115.167 43.5,112.833 43.5,110.5 Z"/></g>
<g><path style="opacity:1" fill="#b5e8fc" d="M 52.5,110.5 C 55.1667,110.5 57.8333,110.5 60.5,110.5C 60.5,112.833 60.5,115.167 60.5,117.5C 57.8333,117.5 55.1667,117.5 52.5,117.5C 52.5,115.167 52.5,112.833 52.5,110.5 Z"/></g>
<g><path style="opacity:1" fill="#b5e8fc" d="M 61.5,110.5 C 64.1667,110.5 66.8333,110.5 69.5,110.5C 69.5,112.833 69.5,115.167 69.5,117.5C 66.8333,117.5 64.1667,117.5 61.5,117.5C 61.5,115.167 61.5,112.833 61.5,110.5 Z"/></g>
<g><path style="opacity:1" fill="#b5e7fc" d="M 125.5,110.5 C 127.5,110.5 129.5,110.5 131.5,110.5C 131.5,112.833 131.5,115.167 131.5,117.5C 128.833,117.5 126.167,117.5 123.5,117.5C 123.5,115.5 123.5,113.5 123.5,111.5C 123.842,110.662 124.508,110.328 125.5,110.5 Z"/></g>
<g><path style="opacity:1" fill="#b5e8fc" d="M 132.5,110.5 C 135.167,110.5 137.833,110.5 140.5,110.5C 140.5,112.833 140.5,115.167 140.5,117.5C 137.833,117.5 135.167,117.5 132.5,117.5C 132.5,115.167 132.5,112.833 132.5,110.5 Z"/></g>
<g><path style="opacity:1" fill="#b5e8fc" d="M 141.5,110.5 C 144.167,110.5 146.833,110.5 149.5,110.5C 149.5,112.833 149.5,115.167 149.5,117.5C 146.833,117.5 144.167,117.5 141.5,117.5C 141.5,115.167 141.5,112.833 141.5,110.5 Z"/></g>
<g><path style="opacity:1" fill="#b5e8fc" d="M 158.5,110.5 C 161.167,110.5 163.833,110.5 166.5,110.5C 166.5,112.833 166.5,115.167 166.5,117.5C 163.833,117.5 161.167,117.5 158.5,117.5C 158.5,115.167 158.5,112.833 158.5,110.5 Z"/></g>
<g><path style="opacity:1" fill="#b5e8fc" d="M 167.5,110.5 C 170.167,110.5 172.833,110.5 175.5,110.5C 175.5,112.833 175.5,115.167 175.5,117.5C 172.833,117.5 170.167,117.5 167.5,117.5C 167.5,115.167 167.5,112.833 167.5,110.5 Z"/></g>
<g><path style="opacity:1" fill="#b5e7fc" d="M 180.5,110.5 C 181.959,110.433 183.292,110.766 184.5,111.5C 184.5,113.5 184.5,115.5 184.5,117.5C 181.833,117.5 179.167,117.5 176.5,117.5C 176.5,115.167 176.5,112.833 176.5,110.5C 177.833,110.5 179.167,110.5 180.5,110.5 Z"/></g>
<g><path style="opacity:1" fill="#b5e7fc" d="M 9.5,118.5 C 11.5,118.5 13.5,118.5 15.5,118.5C 15.5,121.167 15.5,123.833 15.5,126.5C 12.8333,126.5 10.1667,126.5 7.5,126.5C 7.5,125.167 7.5,123.833 7.5,122.5C 7.6596,120.847 8.32627,119.514 9.5,118.5 Z"/></g>
<g><path style="opacity:1" fill="#b5e8fc" d="M 16.5,118.5 C 19.1667,118.5 21.8333,118.5 24.5,118.5C 24.5,121.167 24.5,123.833 24.5,126.5C 21.8333,126.5 19.1667,126.5 16.5,126.5C 16.5,123.833 16.5,121.167 16.5,118.5 Z"/></g>
<g><path style="opacity:1" fill="#b5e8fc" d="M 25.5,118.5 C 28.1667,118.5 30.8333,118.5 33.5,118.5C 33.5,121.167 33.5,123.833 33.5,126.5C 30.8333,126.5 28.1667,126.5 25.5,126.5C 25.5,123.833 25.5,121.167 25.5,118.5 Z"/></g>
<g><path style="opacity:1" fill="#b5e8fc" d="M 34.5,118.5 C 37.1667,118.5 39.8333,118.5 42.5,118.5C 42.5,121.167 42.5,123.833 42.5,126.5C 39.8333,126.5 37.1667,126.5 34.5,126.5C 34.5,123.833 34.5,121.167 34.5,118.5 Z"/></g>
<g><path style="opacity:1" fill="#b5e8fc" d="M 43.5,118.5 C 46.1667,118.5 48.8333,118.5 51.5,118.5C 51.5,121.167 51.5,123.833 51.5,126.5C 48.8333,126.5 46.1667,126.5 43.5,126.5C 43.5,123.833 43.5,121.167 43.5,118.5 Z"/></g>
<g><path style="opacity:1" fill="#b5e8fc" d="M 52.5,118.5 C 55.1667,118.5 57.8333,118.5 60.5,118.5C 60.5,121.167 60.5,123.833 60.5,126.5C 57.8333,126.5 55.1667,126.5 52.5,126.5C 52.5,123.833 52.5,121.167 52.5,118.5 Z"/></g>
<g><path style="opacity:1" fill="#b5e8fc" d="M 61.5,118.5 C 64.1667,118.5 66.8333,118.5 69.5,118.5C 69.5,121.167 69.5,123.833 69.5,126.5C 66.8333,126.5 64.1667,126.5 61.5,126.5C 61.5,123.833 61.5,121.167 61.5,118.5 Z"/></g>
<g><path style="opacity:1" fill="#b5e8fc" d="M 70.5,118.5 C 72.8333,118.5 75.1667,118.5 77.5,118.5C 77.5,121.167 77.5,123.833 77.5,126.5C 75.1667,126.5 72.8333,126.5 70.5,126.5C 70.5,123.833 70.5,121.167 70.5,118.5 Z"/></g>
<g><path style="opacity:1" fill="#b3e6fc" d="M 84.5,118.5 C 86.2227,120.78 86.8893,123.447 86.5,126.5C 83.8333,126.5 81.1667,126.5 78.5,126.5C 78.5,123.833 78.5,121.167 78.5,118.5C 80.5,118.5 82.5,118.5 84.5,118.5 Z"/></g>
<g><path style="opacity:1" fill="#b5e7fc" d="M 115.5,118.5 C 117.833,118.5 120.167,118.5 122.5,118.5C 122.5,121.167 122.5,123.833 122.5,126.5C 119.833,126.5 117.167,126.5 114.5,126.5C 114.5,124.833 114.5,123.167 114.5,121.5C 114.557,120.391 114.89,119.391 115.5,118.5 Z"/></g>
<g><path style="opacity:1" fill="#b5e8fc" d="M 123.5,118.5 C 126.167,118.5 128.833,118.5 131.5,118.5C 131.5,121.167 131.5,123.833 131.5,126.5C 128.833,126.5 126.167,126.5 123.5,126.5C 123.5,123.833 123.5,121.167 123.5,118.5 Z"/></g>
<g><path style="opacity:1" fill="#b5e8fc" d="M 132.5,118.5 C 135.167,118.5 137.833,118.5 140.5,118.5C 140.5,121.167 140.5,123.833 140.5,126.5C 137.833,126.5 135.167,126.5 132.5,126.5C 132.5,123.833 132.5,121.167 132.5,118.5 Z"/></g>
<g><path style="opacity:1" fill="#b5e8fc" d="M 141.5,118.5 C 144.167,118.5 146.833,118.5 149.5,118.5C 149.5,121.167 149.5,123.833 149.5,126.5C 146.833,126.5 144.167,126.5 141.5,126.5C 141.5,123.833 141.5,121.167 141.5,118.5 Z"/></g>
<g><path style="opacity:1" fill="#b5e8fc" d="M 150.5,118.5 C 152.833,118.5 155.167,118.5 157.5,118.5C 157.5,121.167 157.5,123.833 157.5,126.5C 155.167,126.5 152.833,126.5 150.5,126.5C 150.5,123.833 150.5,121.167 150.5,118.5 Z"/></g>
<g><path style="opacity:1" fill="#b5e8fc" d="M 158.5,118.5 C 161.167,118.5 163.833,118.5 166.5,118.5C 166.5,121.167 166.5,123.833 166.5,126.5C 163.833,126.5 161.167,126.5 158.5,126.5C 158.5,123.833 158.5,121.167 158.5,118.5 Z"/></g>
<g><path style="opacity:1" fill="#b5e8fc" d="M 167.5,118.5 C 170.167,118.5 172.833,118.5 175.5,118.5C 175.5,121.167 175.5,123.833 175.5,126.5C 172.833,126.5 170.167,126.5 167.5,126.5C 167.5,123.833 167.5,121.167 167.5,118.5 Z"/></g>
<g><path style="opacity:1" fill="#b5e8fc" d="M 176.5,118.5 C 179.167,118.5 181.833,118.5 184.5,118.5C 184.5,121.167 184.5,123.833 184.5,126.5C 181.833,126.5 179.167,126.5 176.5,126.5C 176.5,123.833 176.5,121.167 176.5,118.5 Z"/></g>
<g><path style="opacity:1" fill="#b5e7fc" d="M 191.5,118.5 C 192.234,119.708 192.567,121.041 192.5,122.5C 192.5,123.833 192.5,125.167 192.5,126.5C 190.167,126.5 187.833,126.5 185.5,126.5C 185.5,123.833 185.5,121.167 185.5,118.5C 187.5,118.5 189.5,118.5 191.5,118.5 Z"/></g>
<g><path style="opacity:1" fill="#b5e8fc" d="M 7.5,127.5 C 10.1667,127.5 12.8333,127.5 15.5,127.5C 15.5,130.167 15.5,132.833 15.5,135.5C 12.8333,135.5 10.1667,135.5 7.5,135.5C 7.5,132.833 7.5,130.167 7.5,127.5 Z"/></g>
<g><path style="opacity:1" fill="#b5e8fc" d="M 16.5,127.5 C 19.1667,127.5 21.8333,127.5 24.5,127.5C 24.5,130.167 24.5,132.833 24.5,135.5C 21.8333,135.5 19.1667,135.5 16.5,135.5C 16.5,132.833 16.5,130.167 16.5,127.5 Z"/></g>
<g><path style="opacity:1" fill="#b5e8fc" d="M 25.5,127.5 C 28.1667,127.5 30.8333,127.5 33.5,127.5C 33.5,130.167 33.5,132.833 33.5,135.5C 30.8333,135.5 28.1667,135.5 25.5,135.5C 25.5,132.833 25.5,130.167 25.5,127.5 Z"/></g>
<g><path style="opacity:1" fill="#b5e8fc" d="M 34.5,127.5 C 37.1667,127.5 39.8333,127.5 42.5,127.5C 42.5,130.167 42.5,132.833 42.5,135.5C 39.8333,135.5 37.1667,135.5 34.5,135.5C 34.5,132.833 34.5,130.167 34.5,127.5 Z"/></g>
<g><path style="opacity:1" fill="#b5e8fc" d="M 43.5,127.5 C 46.1667,127.5 48.8333,127.5 51.5,127.5C 51.5,130.167 51.5,132.833 51.5,135.5C 48.8333,135.5 46.1667,135.5 43.5,135.5C 43.5,132.833 43.5,130.167 43.5,127.5 Z"/></g>
<g><path style="opacity:1" fill="#b5e8fc" d="M 52.5,127.5 C 55.1667,127.5 57.8333,127.5 60.5,127.5C 60.5,130.167 60.5,132.833 60.5,135.5C 57.8333,135.5 55.1667,135.5 52.5,135.5C 52.5,132.833 52.5,130.167 52.5,127.5 Z"/></g>
<g><path style="opacity:1" fill="#b5e8fc" d="M 61.5,127.5 C 64.1667,127.5 66.8333,127.5 69.5,127.5C 69.5,130.167 69.5,132.833 69.5,135.5C 66.8333,135.5 64.1667,135.5 61.5,135.5C 61.5,132.833 61.5,130.167 61.5,127.5 Z"/></g>
<g><path style="opacity:1" fill="#b5e8fc" d="M 70.5,127.5 C 72.8333,127.5 75.1667,127.5 77.5,127.5C 77.5,130.167 77.5,132.833 77.5,135.5C 75.1667,135.5 72.8333,135.5 70.5,135.5C 70.5,132.833 70.5,130.167 70.5,127.5 Z"/></g>
<g><path style="opacity:1" fill="#b5e8fc" d="M 86.5,127.5 C 86.5,130.167 86.5,132.833 86.5,135.5C 83.8333,135.5 81.1667,135.5 78.5,135.5C 78.5,132.833 78.5,130.167 78.5,127.5C 81.1667,127.5 83.8333,127.5 86.5,127.5 Z"/></g>
<g><path style="opacity:1" fill="#b5e8fc" d="M 114.5,127.5 C 117.167,127.5 119.833,127.5 122.5,127.5C 122.5,130.167 122.5,132.833 122.5,135.5C 119.833,135.5 117.167,135.5 114.5,135.5C 114.5,132.833 114.5,130.167 114.5,127.5 Z"/></g>
<g><path style="opacity:1" fill="#b5e8fc" d="M 123.5,127.5 C 126.167,127.5 128.833,127.5 131.5,127.5C 131.5,130.167 131.5,132.833 131.5,135.5C 128.833,135.5 126.167,135.5 123.5,135.5C 123.5,132.833 123.5,130.167 123.5,127.5 Z"/></g>
<g><path style="opacity:1" fill="#b5e8fc" d="M 132.5,127.5 C 135.167,127.5 137.833,127.5 140.5,127.5C 140.5,130.167 140.5,132.833 140.5,135.5C 137.833,135.5 135.167,135.5 132.5,135.5C 132.5,132.833 132.5,130.167 132.5,127.5 Z"/></g>
<g><path style="opacity:1" fill="#b5e8fc" d="M 141.5,127.5 C 144.167,127.5 146.833,127.5 149.5,127.5C 149.5,130.167 149.5,132.833 149.5,135.5C 146.833,135.5 144.167,135.5 141.5,135.5C 141.5,132.833 141.5,130.167 141.5,127.5 Z"/></g>
<g><path style="opacity:1" fill="#b5e8fc" d="M 150.5,127.5 C 152.833,127.5 155.167,127.5 157.5,127.5C 157.5,130.167 157.5,132.833 157.5,135.5C 155.167,135.5 152.833,135.5 150.5,135.5C 150.5,132.833 150.5,130.167 150.5,127.5 Z"/></g>
<g><path style="opacity:1" fill="#b5e8fc" d="M 158.5,127.5 C 161.167,127.5 163.833,127.5 166.5,127.5C 166.5,130.167 166.5,132.833 166.5,135.5C 163.833,135.5 161.167,135.5 158.5,135.5C 158.5,132.833 158.5,130.167 158.5,127.5 Z"/></g>
<g><path style="opacity:1" fill="#b5e8fc" d="M 167.5,127.5 C 170.167,127.5 172.833,127.5 175.5,127.5C 175.5,130.167 175.5,132.833 175.5,135.5C 172.833,135.5 170.167,135.5 167.5,135.5C 167.5,132.833 167.5,130.167 167.5,127.5 Z"/></g>
<g><path style="opacity:1" fill="#b5e8fc" d="M 176.5,127.5 C 179.167,127.5 181.833,127.5 184.5,127.5C 184.5,130.167 184.5,132.833 184.5,135.5C 181.833,135.5 179.167,135.5 176.5,135.5C 176.5,132.833 176.5,130.167 176.5,127.5 Z"/></g>
<g><path style="opacity:1" fill="#b5e8fc" d="M 193.5,127.5 C 193.5,130.167 193.5,132.833 193.5,135.5C 190.833,135.5 188.167,135.5 185.5,135.5C 185.5,132.833 185.5,130.167 185.5,127.5C 188.167,127.5 190.833,127.5 193.5,127.5 Z"/></g>
<g><path style="opacity:1" fill="#b5e8fc" d="M 7.5,136.5 C 10.1667,136.5 12.8333,136.5 15.5,136.5C 15.5,139.167 15.5,141.833 15.5,144.5C 12.8333,144.5 10.1667,144.5 7.5,144.5C 7.5,141.833 7.5,139.167 7.5,136.5 Z"/></g>
<g><path style="opacity:1" fill="#b5e8fc" d="M 16.5,136.5 C 19.1667,136.5 21.8333,136.5 24.5,136.5C 24.5,139.167 24.5,141.833 24.5,144.5C 21.8333,144.5 19.1667,144.5 16.5,144.5C 16.5,141.833 16.5,139.167 16.5,136.5 Z"/></g>
<g><path style="opacity:1" fill="#b5e8fc" d="M 25.5,136.5 C 28.1667,136.5 30.8333,136.5 33.5,136.5C 33.5,139.167 33.5,141.833 33.5,144.5C 30.8333,144.5 28.1667,144.5 25.5,144.5C 25.5,141.833 25.5,139.167 25.5,136.5 Z"/></g>
<g><path style="opacity:1" fill="#b5e8fc" d="M 34.5,136.5 C 37.1667,136.5 39.8333,136.5 42.5,136.5C 42.5,139.167 42.5,141.833 42.5,144.5C 39.8333,144.5 37.1667,144.5 34.5,144.5C 34.5,141.833 34.5,139.167 34.5,136.5 Z"/></g>
<g><path style="opacity:1" fill="#b5e8fc" d="M 43.5,136.5 C 46.1667,136.5 48.8333,136.5 51.5,136.5C 51.5,139.167 51.5,141.833 51.5,144.5C 48.8333,144.5 46.1667,144.5 43.5,144.5C 43.5,141.833 43.5,139.167 43.5,136.5 Z"/></g>
<g><path style="opacity:1" fill="#b5e8fc" d="M 52.5,136.5 C 55.1667,136.5 57.8333,136.5 60.5,136.5C 60.5,139.167 60.5,141.833 60.5,144.5C 57.8333,144.5 55.1667,144.5 52.5,144.5C 52.5,141.833 52.5,139.167 52.5,136.5 Z"/></g>
<g><path style="opacity:1" fill="#b5e8fc" d="M 61.5,136.5 C 64.1667,136.5 66.8333,136.5 69.5,136.5C 69.5,139.167 69.5,141.833 69.5,144.5C 66.8333,144.5 64.1667,144.5 61.5,144.5C 61.5,141.833 61.5,139.167 61.5,136.5 Z"/></g>
<g><path style="opacity:1" fill="#b5e8fc" d="M 70.5,136.5 C 72.8333,136.5 75.1667,136.5 77.5,136.5C 77.5,139.167 77.5,141.833 77.5,144.5C 75.1667,144.5 72.8333,144.5 70.5,144.5C 70.5,141.833 70.5,139.167 70.5,136.5 Z"/></g>
<g><path style="opacity:1" fill="#b5e8fc" d="M 86.5,136.5 C 86.5,139.167 86.5,141.833 86.5,144.5C 83.8333,144.5 81.1667,144.5 78.5,144.5C 78.5,141.833 78.5,139.167 78.5,136.5C 81.1667,136.5 83.8333,136.5 86.5,136.5 Z"/></g>
<g><path style="opacity:1" fill="#b5e8fc" d="M 114.5,136.5 C 117.167,136.5 119.833,136.5 122.5,136.5C 122.5,139.167 122.5,141.833 122.5,144.5C 119.833,144.5 117.167,144.5 114.5,144.5C 114.5,141.833 114.5,139.167 114.5,136.5 Z"/></g>
<g><path style="opacity:1" fill="#b5e8fc" d="M 123.5,136.5 C 126.167,136.5 128.833,136.5 131.5,136.5C 131.5,139.167 131.5,141.833 131.5,144.5C 128.833,144.5 126.167,144.5 123.5,144.5C 123.5,141.833 123.5,139.167 123.5,136.5 Z"/></g>
<g><path style="opacity:1" fill="#b5e8fc" d="M 132.5,136.5 C 135.167,136.5 137.833,136.5 140.5,136.5C 140.5,139.167 140.5,141.833 140.5,144.5C 137.833,144.5 135.167,144.5 132.5,144.5C 132.5,141.833 132.5,139.167 132.5,136.5 Z"/></g>
<g><path style="opacity:1" fill="#b5e8fc" d="M 141.5,136.5 C 144.167,136.5 146.833,136.5 149.5,136.5C 149.5,139.167 149.5,141.833 149.5,144.5C 146.833,144.5 144.167,144.5 141.5,144.5C 141.5,141.833 141.5,139.167 141.5,136.5 Z"/></g>
<g><path style="opacity:1" fill="#b5e8fc" d="M 150.5,136.5 C 152.833,136.5 155.167,136.5 157.5,136.5C 157.5,139.167 157.5,141.833 157.5,144.5C 155.167,144.5 152.833,144.5 150.5,144.5C 150.5,141.833 150.5,139.167 150.5,136.5 Z"/></g>
<g><path style="opacity:1" fill="#b5e8fc" d="M 158.5,136.5 C 161.167,136.5 163.833,136.5 166.5,136.5C 166.5,139.167 166.5,141.833 166.5,144.5C 163.833,144.5 161.167,144.5 158.5,144.5C 158.5,141.833 158.5,139.167 158.5,136.5 Z"/></g>
<g><path style="opacity:1" fill="#b5e8fc" d="M 167.5,136.5 C 170.167,136.5 172.833,136.5 175.5,136.5C 175.5,139.167 175.5,141.833 175.5,144.5C 172.833,144.5 170.167,144.5 167.5,144.5C 167.5,141.833 167.5,139.167 167.5,136.5 Z"/></g>
<g><path style="opacity:1" fill="#b5e8fc" d="M 176.5,136.5 C 179.167,136.5 181.833,136.5 184.5,136.5C 184.5,139.167 184.5,141.833 184.5,144.5C 181.833,144.5 179.167,144.5 176.5,144.5C 176.5,141.833 176.5,139.167 176.5,136.5 Z"/></g>
<g><path style="opacity:1" fill="#b5e8fc" d="M 193.5,136.5 C 193.5,139.167 193.5,141.833 193.5,144.5C 190.833,144.5 188.167,144.5 185.5,144.5C 185.5,141.833 185.5,139.167 185.5,136.5C 188.167,136.5 190.833,136.5 193.5,136.5 Z"/></g>
<g><path style="opacity:1" fill="#b5e8fc" d="M 7.5,145.5 C 10.1667,145.5 12.8333,145.5 15.5,145.5C 15.5,148.167 15.5,150.833 15.5,153.5C 12.8333,153.5 10.1667,153.5 7.5,153.5C 7.5,150.833 7.5,148.167 7.5,145.5 Z"/></g>
<g><path style="opacity:1" fill="#b5e8fc" d="M 16.5,145.5 C 19.1667,145.5 21.8333,145.5 24.5,145.5C 24.5,148.167 24.5,150.833 24.5,153.5C 21.8333,153.5 19.1667,153.5 16.5,153.5C 16.5,150.833 16.5,148.167 16.5,145.5 Z"/></g>
<g><path style="opacity:1" fill="#b5e8fc" d="M 25.5,145.5 C 28.1667,145.5 30.8333,145.5 33.5,145.5C 33.5,148.167 33.5,150.833 33.5,153.5C 30.8333,153.5 28.1667,153.5 25.5,153.5C 25.5,150.833 25.5,148.167 25.5,145.5 Z"/></g>
<g><path style="opacity:1" fill="#b5e8fc" d="M 34.5,145.5 C 37.1667,145.5 39.8333,145.5 42.5,145.5C 42.5,148.167 42.5,150.833 42.5,153.5C 39.8333,153.5 37.1667,153.5 34.5,153.5C 34.5,150.833 34.5,148.167 34.5,145.5 Z"/></g>
<g><path style="opacity:1" fill="#b5e8fc" d="M 43.5,145.5 C 46.1667,145.5 48.8333,145.5 51.5,145.5C 51.5,148.167 51.5,150.833 51.5,153.5C 48.8333,153.5 46.1667,153.5 43.5,153.5C 43.5,150.833 43.5,148.167 43.5,145.5 Z"/></g>
<g><path style="opacity:1" fill="#b5e8fc" d="M 52.5,145.5 C 55.1667,145.5 57.8333,145.5 60.5,145.5C 60.5,148.167 60.5,150.833 60.5,153.5C 57.8333,153.5 55.1667,153.5 52.5,153.5C 52.5,150.833 52.5,148.167 52.5,145.5 Z"/></g>
<g><path style="opacity:1" fill="#b5e8fc" d="M 61.5,145.5 C 64.1667,145.5 66.8333,145.5 69.5,145.5C 69.5,148.167 69.5,150.833 69.5,153.5C 66.8333,153.5 64.1667,153.5 61.5,153.5C 61.5,150.833 61.5,148.167 61.5,145.5 Z"/></g>
<g><path style="opacity:1" fill="#b5e8fc" d="M 70.5,145.5 C 72.8333,145.5 75.1667,145.5 77.5,145.5C 77.5,148.167 77.5,150.833 77.5,153.5C 75.1667,153.5 72.8333,153.5 70.5,153.5C 70.5,150.833 70.5,148.167 70.5,145.5 Z"/></g>
<g><path style="opacity:1" fill="#b5e8fc" d="M 86.5,145.5 C 86.5,148.167 86.5,150.833 86.5,153.5C 83.8333,153.5 81.1667,153.5 78.5,153.5C 78.5,150.833 78.5,148.167 78.5,145.5C 81.1667,145.5 83.8333,145.5 86.5,145.5 Z"/></g>
<g><path style="opacity:1" fill="#b5e8fc" d="M 114.5,145.5 C 117.167,145.5 119.833,145.5 122.5,145.5C 122.5,148.167 122.5,150.833 122.5,153.5C 119.833,153.5 117.167,153.5 114.5,153.5C 114.5,150.833 114.5,148.167 114.5,145.5 Z"/></g>
<g><path style="opacity:1" fill="#b5e8fc" d="M 123.5,145.5 C 126.167,145.5 128.833,145.5 131.5,145.5C 131.5,148.167 131.5,150.833 131.5,153.5C 128.833,153.5 126.167,153.5 123.5,153.5C 123.5,150.833 123.5,148.167 123.5,145.5 Z"/></g>
<g><path style="opacity:1" fill="#b5e8fc" d="M 132.5,145.5 C 135.167,145.5 137.833,145.5 140.5,145.5C 140.5,148.167 140.5,150.833 140.5,153.5C 137.833,153.5 135.167,153.5 132.5,153.5C 132.5,150.833 132.5,148.167 132.5,145.5 Z"/></g>
<g><path style="opacity:1" fill="#b5e8fc" d="M 141.5,145.5 C 144.167,145.5 146.833,145.5 149.5,145.5C 149.5,148.167 149.5,150.833 149.5,153.5C 146.833,153.5 144.167,153.5 141.5,153.5C 141.5,150.833 141.5,148.167 141.5,145.5 Z"/></g>
<g><path style="opacity:1" fill="#b5e8fc" d="M 150.5,145.5 C 152.833,145.5 155.167,145.5 157.5,145.5C 157.5,148.167 157.5,150.833 157.5,153.5C 155.167,153.5 152.833,153.5 150.5,153.5C 150.5,150.833 150.5,148.167 150.5,145.5 Z"/></g>
<g><path style="opacity:1" fill="#b5e8fc" d="M 158.5,145.5 C 161.167,145.5 163.833,145.5 166.5,145.5C 166.5,148.167 166.5,150.833 166.5,153.5C 163.833,153.5 161.167,153.5 158.5,153.5C 158.5,150.833 158.5,148.167 158.5,145.5 Z"/></g>
<g><path style="opacity:1" fill="#b5e8fc" d="M 167.5,145.5 C 170.167,145.5 172.833,145.5 175.5,145.5C 175.5,148.167 175.5,150.833 175.5,153.5C 172.833,153.5 170.167,153.5 167.5,153.5C 167.5,150.833 167.5,148.167 167.5,145.5 Z"/></g>
<g><path style="opacity:1" fill="#b5e8fc" d="M 176.5,145.5 C 179.167,145.5 181.833,145.5 184.5,145.5C 184.5,148.167 184.5,150.833 184.5,153.5C 181.833,153.5 179.167,153.5 176.5,153.5C 176.5,150.833 176.5,148.167 176.5,145.5 Z"/></g>
<g><path style="opacity:1" fill="#b5e8fc" d="M 193.5,145.5 C 193.5,148.167 193.5,150.833 193.5,153.5C 190.833,153.5 188.167,153.5 185.5,153.5C 185.5,150.833 185.5,148.167 185.5,145.5C 188.167,145.5 190.833,145.5 193.5,145.5 Z"/></g>
<g><path style="opacity:1" fill="#b5e8fc" d="M 7.5,154.5 C 10.1667,154.5 12.8333,154.5 15.5,154.5C 15.5,157.167 15.5,159.833 15.5,162.5C 12.8333,162.5 10.1667,162.5 7.5,162.5C 7.5,159.833 7.5,157.167 7.5,154.5 Z"/></g>
<g><path style="opacity:1" fill="#b5e8fc" d="M 16.5,154.5 C 19.1667,154.5 21.8333,154.5 24.5,154.5C 24.5,157.167 24.5,159.833 24.5,162.5C 21.8333,162.5 19.1667,162.5 16.5,162.5C 16.5,159.833 16.5,157.167 16.5,154.5 Z"/></g>
<g><path style="opacity:1" fill="#b5e8fc" d="M 25.5,154.5 C 28.1667,154.5 30.8333,154.5 33.5,154.5C 33.5,157.167 33.5,159.833 33.5,162.5C 30.8333,162.5 28.1667,162.5 25.5,162.5C 25.5,159.833 25.5,157.167 25.5,154.5 Z"/></g>
<g><path style="opacity:1" fill="#b5e8fc" d="M 34.5,154.5 C 37.1667,154.5 39.8333,154.5 42.5,154.5C 42.5,157.167 42.5,159.833 42.5,162.5C 39.8333,162.5 37.1667,162.5 34.5,162.5C 34.5,159.833 34.5,157.167 34.5,154.5 Z"/></g>
<g><path style="opacity:1" fill="#b5e8fc" d="M 43.5,154.5 C 46.1667,154.5 48.8333,154.5 51.5,154.5C 51.5,157.167 51.5,159.833 51.5,162.5C 48.8333,162.5 46.1667,162.5 43.5,162.5C 43.5,159.833 43.5,157.167 43.5,154.5 Z"/></g>
<g><path style="opacity:1" fill="#b5e8fc" d="M 52.5,154.5 C 55.1667,154.5 57.8333,154.5 60.5,154.5C 60.5,157.167 60.5,159.833 60.5,162.5C 57.8333,162.5 55.1667,162.5 52.5,162.5C 52.5,159.833 52.5,157.167 52.5,154.5 Z"/></g>
<g><path style="opacity:1" fill="#b5e8fc" d="M 61.5,154.5 C 64.1667,154.5 66.8333,154.5 69.5,154.5C 69.5,157.167 69.5,159.833 69.5,162.5C 66.8333,162.5 64.1667,162.5 61.5,162.5C 61.5,159.833 61.5,157.167 61.5,154.5 Z"/></g>
<g><path style="opacity:1" fill="#b5e8fc" d="M 70.5,154.5 C 72.8333,154.5 75.1667,154.5 77.5,154.5C 77.5,157.167 77.5,159.833 77.5,162.5C 75.1667,162.5 72.8333,162.5 70.5,162.5C 70.5,159.833 70.5,157.167 70.5,154.5 Z"/></g>
<g><path style="opacity:1" fill="#b5e8fc" d="M 86.5,154.5 C 86.5,157.167 86.5,159.833 86.5,162.5C 83.8333,162.5 81.1667,162.5 78.5,162.5C 78.5,159.833 78.5,157.167 78.5,154.5C 81.1667,154.5 83.8333,154.5 86.5,154.5 Z"/></g>
<g><path style="opacity:1" fill="#b5e8fc" d="M 114.5,154.5 C 117.167,154.5 119.833,154.5 122.5,154.5C 122.5,157.167 122.5,159.833 122.5,162.5C 119.833,162.5 117.167,162.5 114.5,162.5C 114.5,159.833 114.5,157.167 114.5,154.5 Z"/></g>
<g><path style="opacity:1" fill="#b5e8fc" d="M 123.5,154.5 C 126.167,154.5 128.833,154.5 131.5,154.5C 131.5,157.167 131.5,159.833 131.5,162.5C 128.833,162.5 126.167,162.5 123.5,162.5C 123.5,159.833 123.5,157.167 123.5,154.5 Z"/></g>
<g><path style="opacity:1" fill="#b5e8fc" d="M 132.5,154.5 C 135.167,154.5 137.833,154.5 140.5,154.5C 140.5,157.167 140.5,159.833 140.5,162.5C 137.833,162.5 135.167,162.5 132.5,162.5C 132.5,159.833 132.5,157.167 132.5,154.5 Z"/></g>
<g><path style="opacity:1" fill="#b5e8fc" d="M 141.5,154.5 C 144.167,154.5 146.833,154.5 149.5,154.5C 149.5,157.167 149.5,159.833 149.5,162.5C 146.833,162.5 144.167,162.5 141.5,162.5C 141.5,159.833 141.5,157.167 141.5,154.5 Z"/></g>
<g><path style="opacity:1" fill="#b5e8fc" d="M 150.5,154.5 C 152.833,154.5 155.167,154.5 157.5,154.5C 157.5,157.167 157.5,159.833 157.5,162.5C 155.167,162.5 152.833,162.5 150.5,162.5C 150.5,159.833 150.5,157.167 150.5,154.5 Z"/></g>
<g><path style="opacity:1" fill="#b5e8fc" d="M 158.5,154.5 C 161.167,154.5 163.833,154.5 166.5,154.5C 166.5,157.167 166.5,159.833 166.5,162.5C 163.833,162.5 161.167,162.5 158.5,162.5C 158.5,159.833 158.5,157.167 158.5,154.5 Z"/></g>
<g><path style="opacity:1" fill="#b5e8fc" d="M 167.5,154.5 C 170.167,154.5 172.833,154.5 175.5,154.5C 175.5,157.167 175.5,159.833 175.5,162.5C 172.833,162.5 170.167,162.5 167.5,162.5C 167.5,159.833 167.5,157.167 167.5,154.5 Z"/></g>
<g><path style="opacity:1" fill="#b5e8fc" d="M 176.5,154.5 C 179.167,154.5 181.833,154.5 184.5,154.5C 184.5,157.167 184.5,159.833 184.5,162.5C 181.833,162.5 179.167,162.5 176.5,162.5C 176.5,159.833 176.5,157.167 176.5,154.5 Z"/></g>
<g><path style="opacity:1" fill="#b5e8fc" d="M 193.5,154.5 C 193.5,157.167 193.5,159.833 193.5,162.5C 190.833,162.5 188.167,162.5 185.5,162.5C 185.5,159.833 185.5,157.167 185.5,154.5C 188.167,154.5 190.833,154.5 193.5,154.5 Z"/></g>
<g><path style="opacity:1" fill="#b5e8fc" d="M 7.5,163.5 C 10.1667,163.5 12.8333,163.5 15.5,163.5C 15.5,166.167 15.5,168.833 15.5,171.5C 12.8333,171.5 10.1667,171.5 7.5,171.5C 7.5,168.833 7.5,166.167 7.5,163.5 Z"/></g>
<g><path style="opacity:1" fill="#b5e8fc" d="M 16.5,163.5 C 19.1667,163.5 21.8333,163.5 24.5,163.5C 24.5,166.167 24.5,168.833 24.5,171.5C 21.8333,171.5 19.1667,171.5 16.5,171.5C 16.5,168.833 16.5,166.167 16.5,163.5 Z"/></g>
<g><path style="opacity:1" fill="#b5e8fc" d="M 25.5,163.5 C 28.1667,163.5 30.8333,163.5 33.5,163.5C 33.5,166.167 33.5,168.833 33.5,171.5C 30.8333,171.5 28.1667,171.5 25.5,171.5C 25.5,168.833 25.5,166.167 25.5,163.5 Z"/></g>
<g><path style="opacity:1" fill="#b5e8fc" d="M 34.5,163.5 C 37.1667,163.5 39.8333,163.5 42.5,163.5C 42.5,166.167 42.5,168.833 42.5,171.5C 39.8333,171.5 37.1667,171.5 34.5,171.5C 34.5,168.833 34.5,166.167 34.5,163.5 Z"/></g>
<g><path style="opacity:1" fill="#b5e8fc" d="M 43.5,163.5 C 46.1667,163.5 48.8333,163.5 51.5,163.5C 51.5,166.167 51.5,168.833 51.5,171.5C 48.8333,171.5 46.1667,171.5 43.5,171.5C 43.5,168.833 43.5,166.167 43.5,163.5 Z"/></g>
<g><path style="opacity:1" fill="#b5e8fc" d="M 52.5,163.5 C 55.1667,163.5 57.8333,163.5 60.5,163.5C 60.5,166.167 60.5,168.833 60.5,171.5C 57.8333,171.5 55.1667,171.5 52.5,171.5C 52.5,168.833 52.5,166.167 52.5,163.5 Z"/></g>
<g><path style="opacity:1" fill="#b5e8fc" d="M 61.5,163.5 C 64.1667,163.5 66.8333,163.5 69.5,163.5C 69.5,166.167 69.5,168.833 69.5,171.5C 66.8333,171.5 64.1667,171.5 61.5,171.5C 61.5,168.833 61.5,166.167 61.5,163.5 Z"/></g>
<g><path style="opacity:1" fill="#b5e8fc" d="M 70.5,163.5 C 72.8333,163.5 75.1667,163.5 77.5,163.5C 77.5,166.167 77.5,168.833 77.5,171.5C 75.1667,171.5 72.8333,171.5 70.5,171.5C 70.5,168.833 70.5,166.167 70.5,163.5 Z"/></g>
<g><path style="opacity:1" fill="#b5e8fc" d="M 86.5,163.5 C 86.5,166.167 86.5,168.833 86.5,171.5C 83.8333,171.5 81.1667,171.5 78.5,171.5C 78.5,168.833 78.5,166.167 78.5,163.5C 81.1667,163.5 83.8333,163.5 86.5,163.5 Z"/></g>
<g><path style="opacity:1" fill="#b5e8fc" d="M 114.5,163.5 C 117.167,163.5 119.833,163.5 122.5,163.5C 122.5,166.167 122.5,168.833 122.5,171.5C 119.833,171.5 117.167,171.5 114.5,171.5C 114.5,168.833 114.5,166.167 114.5,163.5 Z"/></g>
<g><path style="opacity:1" fill="#b5e8fc" d="M 123.5,163.5 C 126.167,163.5 128.833,163.5 131.5,163.5C 131.5,166.167 131.5,168.833 131.5,171.5C 128.833,171.5 126.167,171.5 123.5,171.5C 123.5,168.833 123.5,166.167 123.5,163.5 Z"/></g>
<g><path style="opacity:1" fill="#b5e8fc" d="M 132.5,163.5 C 135.167,163.5 137.833,163.5 140.5,163.5C 140.5,166.167 140.5,168.833 140.5,171.5C 137.833,171.5 135.167,171.5 132.5,171.5C 132.5,168.833 132.5,166.167 132.5,163.5 Z"/></g>
<g><path style="opacity:1" fill="#b5e8fc" d="M 141.5,163.5 C 144.167,163.5 146.833,163.5 149.5,163.5C 149.5,166.167 149.5,168.833 149.5,171.5C 146.833,171.5 144.167,171.5 141.5,171.5C 141.5,168.833 141.5,166.167 141.5,163.5 Z"/></g>
<g><path style="opacity:1" fill="#b5e8fc" d="M 150.5,163.5 C 152.833,163.5 155.167,163.5 157.5,163.5C 157.5,166.167 157.5,168.833 157.5,171.5C 155.167,171.5 152.833,171.5 150.5,171.5C 150.5,168.833 150.5,166.167 150.5,163.5 Z"/></g>
<g><path style="opacity:1" fill="#b5e8fc" d="M 158.5,163.5 C 161.167,163.5 163.833,163.5 166.5,163.5C 166.5,166.167 166.5,168.833 166.5,171.5C 163.833,171.5 161.167,171.5 158.5,171.5C 158.5,168.833 158.5,166.167 158.5,163.5 Z"/></g>
<g><path style="opacity:1" fill="#b5e8fc" d="M 167.5,163.5 C 170.167,163.5 172.833,163.5 175.5,163.5C 175.5,166.167 175.5,168.833 175.5,171.5C 172.833,171.5 170.167,171.5 167.5,171.5C 167.5,168.833 167.5,166.167 167.5,163.5 Z"/></g>
<g><path style="opacity:1" fill="#b5e8fc" d="M 176.5,163.5 C 179.167,163.5 181.833,163.5 184.5,163.5C 184.5,166.167 184.5,168.833 184.5,171.5C 181.833,171.5 179.167,171.5 176.5,171.5C 176.5,168.833 176.5,166.167 176.5,163.5 Z"/></g>
<g><path style="opacity:1" fill="#b5e8fc" d="M 193.5,163.5 C 193.5,166.167 193.5,168.833 193.5,171.5C 190.833,171.5 188.167,171.5 185.5,171.5C 185.5,168.833 185.5,166.167 185.5,163.5C 188.167,163.5 190.833,163.5 193.5,163.5 Z"/></g>
<g><path style="opacity:1" fill="#b5e7fc" d="M 9.5,180.5 C 8.43363,178.299 7.76697,175.965 7.5,173.5C 9.9479,172.527 12.6146,172.194 15.5,172.5C 15.5,175.167 15.5,177.833 15.5,180.5C 13.5,180.5 11.5,180.5 9.5,180.5 Z"/></g>
<g><path style="opacity:1" fill="#b5e8fc" d="M 16.5,172.5 C 19.1667,172.5 21.8333,172.5 24.5,172.5C 24.5,175.167 24.5,177.833 24.5,180.5C 21.8333,180.5 19.1667,180.5 16.5,180.5C 16.5,177.833 16.5,175.167 16.5,172.5 Z"/></g>
<g><path style="opacity:1" fill="#b5e8fc" d="M 25.5,172.5 C 28.1667,172.5 30.8333,172.5 33.5,172.5C 33.5,175.167 33.5,177.833 33.5,180.5C 30.8333,180.5 28.1667,180.5 25.5,180.5C 25.5,177.833 25.5,175.167 25.5,172.5 Z"/></g>
<g><path style="opacity:1" fill="#b5e8fc" d="M 34.5,172.5 C 37.1667,172.5 39.8333,172.5 42.5,172.5C 42.5,175.167 42.5,177.833 42.5,180.5C 39.8333,180.5 37.1667,180.5 34.5,180.5C 34.5,177.833 34.5,175.167 34.5,172.5 Z"/></g>
<g><path style="opacity:1" fill="#b5e8fc" d="M 43.5,172.5 C 46.1667,172.5 48.8333,172.5 51.5,172.5C 51.5,175.167 51.5,177.833 51.5,180.5C 48.8333,180.5 46.1667,180.5 43.5,180.5C 43.5,177.833 43.5,175.167 43.5,172.5 Z"/></g>
<g><path style="opacity:1" fill="#b5e8fc" d="M 52.5,172.5 C 55.1667,172.5 57.8333,172.5 60.5,172.5C 60.5,175.167 60.5,177.833 60.5,180.5C 57.8333,180.5 55.1667,180.5 52.5,180.5C 52.5,177.833 52.5,175.167 52.5,172.5 Z"/></g>
<g><path style="opacity:1" fill="#b5e8fc" d="M 61.5,172.5 C 64.1667,172.5 66.8333,172.5 69.5,172.5C 69.5,175.167 69.5,177.833 69.5,180.5C 66.8333,180.5 64.1667,180.5 61.5,180.5C 61.5,177.833 61.5,175.167 61.5,172.5 Z"/></g>
<g><path style="opacity:1" fill="#b5e8fc" d="M 70.5,172.5 C 72.8333,172.5 75.1667,172.5 77.5,172.5C 77.5,175.167 77.5,177.833 77.5,180.5C 75.1667,180.5 72.8333,180.5 70.5,180.5C 70.5,177.833 70.5,175.167 70.5,172.5 Z"/></g>
<g><path style="opacity:1" fill="#b4e7fc" d="M 86.5,172.5 C 86.3969,175.636 85.3969,178.302 83.5,180.5C 81.8333,180.5 80.1667,180.5 78.5,180.5C 78.5,177.833 78.5,175.167 78.5,172.5C 81.1667,172.5 83.8333,172.5 86.5,172.5 Z"/></g>
<g><path style="opacity:1" fill="#b4e7fc" d="M 116.5,180.5 C 114.926,178.898 114.259,176.898 114.5,174.5C 116.635,172.631 119.302,171.964 122.5,172.5C 122.5,175.167 122.5,177.833 122.5,180.5C 120.5,180.5 118.5,180.5 116.5,180.5 Z"/></g>
<g><path style="opacity:1" fill="#b5e8fc" d="M 123.5,172.5 C 126.167,172.5 128.833,172.5 131.5,172.5C 131.5,175.167 131.5,177.833 131.5,180.5C 128.833,180.5 126.167,180.5 123.5,180.5C 123.5,177.833 123.5,175.167 123.5,172.5 Z"/></g>
<g><path style="opacity:1" fill="#b5e8fc" d="M 132.5,172.5 C 135.167,172.5 137.833,172.5 140.5,172.5C 140.5,175.167 140.5,177.833 140.5,180.5C 137.833,180.5 135.167,180.5 132.5,180.5C 132.5,177.833 132.5,175.167 132.5,172.5 Z"/></g>
<g><path style="opacity:1" fill="#b5e8fc" d="M 141.5,172.5 C 144.167,172.5 146.833,172.5 149.5,172.5C 149.5,175.167 149.5,177.833 149.5,180.5C 146.833,180.5 144.167,180.5 141.5,180.5C 141.5,177.833 141.5,175.167 141.5,172.5 Z"/></g>
<g><path style="opacity:1" fill="#b5e8fc" d="M 150.5,172.5 C 152.833,172.5 155.167,172.5 157.5,172.5C 157.5,175.167 157.5,177.833 157.5,180.5C 155.167,180.5 152.833,180.5 150.5,180.5C 150.5,177.833 150.5,175.167 150.5,172.5 Z"/></g>
<g><path style="opacity:1" fill="#b5e8fc" d="M 158.5,172.5 C 161.167,172.5 163.833,172.5 166.5,172.5C 166.5,175.167 166.5,177.833 166.5,180.5C 163.833,180.5 161.167,180.5 158.5,180.5C 158.5,177.833 158.5,175.167 158.5,172.5 Z"/></g>
<g><path style="opacity:1" fill="#b5e8fc" d="M 167.5,172.5 C 170.167,172.5 172.833,172.5 175.5,172.5C 175.5,175.167 175.5,177.833 175.5,180.5C 172.833,180.5 170.167,180.5 167.5,180.5C 167.5,177.833 167.5,175.167 167.5,172.5 Z"/></g>
<g><path style="opacity:1" fill="#b5e8fc" d="M 176.5,172.5 C 179.167,172.5 181.833,172.5 184.5,172.5C 184.5,175.167 184.5,177.833 184.5,180.5C 181.833,180.5 179.167,180.5 176.5,180.5C 176.5,177.833 176.5,175.167 176.5,172.5 Z"/></g>
<g><path style="opacity:1" fill="#b4e6fc" d="M 192.5,174.5 C 192.741,176.898 192.074,178.898 190.5,180.5C 188.833,180.5 187.167,180.5 185.5,180.5C 185.5,177.833 185.5,175.167 185.5,172.5C 188.388,171.99 190.721,172.656 192.5,174.5 Z"/></g>
<g><path style="opacity:1" fill="#b4e7fc" d="M 24.5,188.5 C 21.4467,188.889 18.78,188.223 16.5,186.5C 16.5,184.833 16.5,183.167 16.5,181.5C 19.1667,181.5 21.8333,181.5 24.5,181.5C 24.5,183.833 24.5,186.167 24.5,188.5 Z"/></g>
<g><path style="opacity:1" fill="#b5e8fc" d="M 33.5,188.5 C 30.8333,188.5 28.1667,188.5 25.5,188.5C 25.5,186.167 25.5,183.833 25.5,181.5C 28.1667,181.5 30.8333,181.5 33.5,181.5C 33.5,183.833 33.5,186.167 33.5,188.5 Z"/></g>
<g><path style="opacity:1" fill="#b5e8fc" d="M 42.5,188.5 C 39.8333,188.5 37.1667,188.5 34.5,188.5C 34.5,186.167 34.5,183.833 34.5,181.5C 37.1667,181.5 39.8333,181.5 42.5,181.5C 42.5,183.833 42.5,186.167 42.5,188.5 Z"/></g>
<g><path style="opacity:1" fill="#b5e8fc" d="M 51.5,188.5 C 48.8333,188.5 46.1667,188.5 43.5,188.5C 43.5,186.167 43.5,183.833 43.5,181.5C 46.1667,181.5 48.8333,181.5 51.5,181.5C 51.5,183.833 51.5,186.167 51.5,188.5 Z"/></g>
<g><path style="opacity:1" fill="#b5e8fc" d="M 60.5,188.5 C 57.8333,188.5 55.1667,188.5 52.5,188.5C 52.5,186.167 52.5,183.833 52.5,181.5C 55.1667,181.5 57.8333,181.5 60.5,181.5C 60.5,183.833 60.5,186.167 60.5,188.5 Z"/></g>
<g><path style="opacity:1" fill="#b5e8fc" d="M 69.5,188.5 C 66.8333,188.5 64.1667,188.5 61.5,188.5C 61.5,186.167 61.5,183.833 61.5,181.5C 64.1667,181.5 66.8333,181.5 69.5,181.5C 69.5,183.833 69.5,186.167 69.5,188.5 Z"/></g>
<g><path style="opacity:1" fill="#b5e8fc" d="M 140.5,188.5 C 137.833,188.5 135.167,188.5 132.5,188.5C 132.5,186.167 132.5,183.833 132.5,181.5C 135.167,181.5 137.833,181.5 140.5,181.5C 140.5,183.833 140.5,186.167 140.5,188.5 Z"/></g>
<g><path style="opacity:1" fill="#b5e8fc" d="M 149.5,188.5 C 146.833,188.5 144.167,188.5 141.5,188.5C 141.5,186.167 141.5,183.833 141.5,181.5C 144.167,181.5 146.833,181.5 149.5,181.5C 149.5,183.833 149.5,186.167 149.5,188.5 Z"/></g>
<g><path style="opacity:1" fill="#b5e8fc" d="M 166.5,188.5 C 163.833,188.5 161.167,188.5 158.5,188.5C 158.5,186.167 158.5,183.833 158.5,181.5C 161.167,181.5 163.833,181.5 166.5,181.5C 166.5,183.833 166.5,186.167 166.5,188.5 Z"/></g>
<g><path style="opacity:1" fill="#b5e8fc" d="M 175.5,188.5 C 172.833,188.5 170.167,188.5 167.5,188.5C 167.5,186.167 167.5,183.833 167.5,181.5C 170.167,181.5 172.833,181.5 175.5,181.5C 175.5,183.833 175.5,186.167 175.5,188.5 Z"/></g>
</svg>
